%TF.GenerationSoftware,KiCad,Pcbnew,(7.0.0)*%
%TF.CreationDate,2023-06-19T20:50:28+08:00*%
%TF.ProjectId,87keyboard,38376b65-7962-46f6-9172-642e6b696361,rev?*%
%TF.SameCoordinates,Original*%
%TF.FileFunction,Legend,Bot*%
%TF.FilePolarity,Positive*%
%FSLAX46Y46*%
G04 Gerber Fmt 4.6, Leading zero omitted, Abs format (unit mm)*
G04 Created by KiCad (PCBNEW (7.0.0)) date 2023-06-19 20:50:28*
%MOMM*%
%LPD*%
G01*
G04 APERTURE LIST*
G04 Aperture macros list*
%AMRoundRect*
0 Rectangle with rounded corners*
0 $1 Rounding radius*
0 $2 $3 $4 $5 $6 $7 $8 $9 X,Y pos of 4 corners*
0 Add a 4 corners polygon primitive as box body*
4,1,4,$2,$3,$4,$5,$6,$7,$8,$9,$2,$3,0*
0 Add four circle primitives for the rounded corners*
1,1,$1+$1,$2,$3*
1,1,$1+$1,$4,$5*
1,1,$1+$1,$6,$7*
1,1,$1+$1,$8,$9*
0 Add four rect primitives between the rounded corners*
20,1,$1+$1,$2,$3,$4,$5,0*
20,1,$1+$1,$4,$5,$6,$7,0*
20,1,$1+$1,$6,$7,$8,$9,0*
20,1,$1+$1,$8,$9,$2,$3,0*%
G04 Aperture macros list end*
%ADD10C,0.150000*%
%ADD11C,0.120000*%
%ADD12C,4.400000*%
%ADD13R,1.700000X1.700000*%
%ADD14O,1.700000X1.700000*%
%ADD15C,1.750000*%
%ADD16C,4.250000*%
%ADD17C,3.987800*%
%ADD18C,2.000000*%
%ADD19RoundRect,0.135000X-0.135000X-0.185000X0.135000X-0.185000X0.135000X0.185000X-0.135000X0.185000X0*%
%ADD20C,0.650000*%
%ADD21R,0.600000X1.150000*%
%ADD22R,0.300000X1.150000*%
%ADD23O,1.000000X1.800000*%
%ADD24O,1.000000X2.100000*%
%ADD25C,3.048000*%
%ADD26RoundRect,0.150000X0.150000X-0.512500X0.150000X0.512500X-0.150000X0.512500X-0.150000X-0.512500X0*%
%ADD27RoundRect,0.135000X0.135000X0.185000X-0.135000X0.185000X-0.135000X-0.185000X0.135000X-0.185000X0*%
G04 APERTURE END LIST*
D10*
%TO.C,R1*%
X150184473Y-23115908D02*
X150517806Y-22639718D01*
X150755901Y-23115908D02*
X150755901Y-22115908D01*
X150755901Y-22115908D02*
X150374949Y-22115908D01*
X150374949Y-22115908D02*
X150279711Y-22163528D01*
X150279711Y-22163528D02*
X150232092Y-22211147D01*
X150232092Y-22211147D02*
X150184473Y-22306385D01*
X150184473Y-22306385D02*
X150184473Y-22449242D01*
X150184473Y-22449242D02*
X150232092Y-22544480D01*
X150232092Y-22544480D02*
X150279711Y-22592099D01*
X150279711Y-22592099D02*
X150374949Y-22639718D01*
X150374949Y-22639718D02*
X150755901Y-22639718D01*
X149232092Y-23115908D02*
X149803520Y-23115908D01*
X149517806Y-23115908D02*
X149517806Y-22115908D01*
X149517806Y-22115908D02*
X149613044Y-22258766D01*
X149613044Y-22258766D02*
X149708282Y-22354004D01*
X149708282Y-22354004D02*
X149803520Y-22401623D01*
%TO.C,J1*%
X149240831Y-13019880D02*
X149240831Y-13734166D01*
X149240831Y-13734166D02*
X149288450Y-13877023D01*
X149288450Y-13877023D02*
X149383688Y-13972261D01*
X149383688Y-13972261D02*
X149526545Y-14019880D01*
X149526545Y-14019880D02*
X149621783Y-14019880D01*
X148240831Y-14019880D02*
X148812259Y-14019880D01*
X148526545Y-14019880D02*
X148526545Y-13019880D01*
X148526545Y-13019880D02*
X148621783Y-13162738D01*
X148621783Y-13162738D02*
X148717021Y-13257976D01*
X148717021Y-13257976D02*
X148812259Y-13305595D01*
%TO.C,U2*%
X156707380Y-25273095D02*
X157516904Y-25273095D01*
X157516904Y-25273095D02*
X157612142Y-25320714D01*
X157612142Y-25320714D02*
X157659761Y-25368333D01*
X157659761Y-25368333D02*
X157707380Y-25463571D01*
X157707380Y-25463571D02*
X157707380Y-25654047D01*
X157707380Y-25654047D02*
X157659761Y-25749285D01*
X157659761Y-25749285D02*
X157612142Y-25796904D01*
X157612142Y-25796904D02*
X157516904Y-25844523D01*
X157516904Y-25844523D02*
X156707380Y-25844523D01*
X156802619Y-26273095D02*
X156755000Y-26320714D01*
X156755000Y-26320714D02*
X156707380Y-26415952D01*
X156707380Y-26415952D02*
X156707380Y-26654047D01*
X156707380Y-26654047D02*
X156755000Y-26749285D01*
X156755000Y-26749285D02*
X156802619Y-26796904D01*
X156802619Y-26796904D02*
X156897857Y-26844523D01*
X156897857Y-26844523D02*
X156993095Y-26844523D01*
X156993095Y-26844523D02*
X157135952Y-26796904D01*
X157135952Y-26796904D02*
X157707380Y-26225476D01*
X157707380Y-26225476D02*
X157707380Y-26844523D01*
%TO.C,R2*%
X160045773Y-23126164D02*
X160379106Y-22649974D01*
X160617201Y-23126164D02*
X160617201Y-22126164D01*
X160617201Y-22126164D02*
X160236249Y-22126164D01*
X160236249Y-22126164D02*
X160141011Y-22173784D01*
X160141011Y-22173784D02*
X160093392Y-22221403D01*
X160093392Y-22221403D02*
X160045773Y-22316641D01*
X160045773Y-22316641D02*
X160045773Y-22459498D01*
X160045773Y-22459498D02*
X160093392Y-22554736D01*
X160093392Y-22554736D02*
X160141011Y-22602355D01*
X160141011Y-22602355D02*
X160236249Y-22649974D01*
X160236249Y-22649974D02*
X160617201Y-22649974D01*
X159664820Y-22221403D02*
X159617201Y-22173784D01*
X159617201Y-22173784D02*
X159521963Y-22126164D01*
X159521963Y-22126164D02*
X159283868Y-22126164D01*
X159283868Y-22126164D02*
X159188630Y-22173784D01*
X159188630Y-22173784D02*
X159141011Y-22221403D01*
X159141011Y-22221403D02*
X159093392Y-22316641D01*
X159093392Y-22316641D02*
X159093392Y-22411879D01*
X159093392Y-22411879D02*
X159141011Y-22554736D01*
X159141011Y-22554736D02*
X159712439Y-23126164D01*
X159712439Y-23126164D02*
X159093392Y-23126164D01*
D11*
%TO.C,R1*%
X151769166Y-22368528D02*
X152076448Y-22368528D01*
X151769166Y-23128528D02*
X152076448Y-23128528D01*
%TO.C,J1*%
X150269998Y-13616250D02*
X150269998Y-12466250D01*
X150269998Y-15716250D02*
X150269998Y-17516250D01*
X159609998Y-13616250D02*
X159609998Y-12466250D01*
X159609998Y-15716250D02*
X159609998Y-17516250D01*
%TO.C,U2*%
X153380000Y-26035000D02*
X153380000Y-26835000D01*
X153380000Y-26035000D02*
X153380000Y-25235000D01*
X156500000Y-26035000D02*
X156500000Y-27835000D01*
X156500000Y-26035000D02*
X156500000Y-25235000D01*
%TO.C,R2*%
X158127748Y-23138784D02*
X157820466Y-23138784D01*
X158127748Y-22378784D02*
X157820466Y-22378784D01*
%TD*%
%LPC*%
D12*
%TO.C,H4*%
X169227500Y-125840000D03*
%TD*%
%TO.C,H5*%
X288290000Y-125840000D03*
%TD*%
%TO.C,H1*%
X334527500Y-68540000D03*
%TD*%
%TO.C,H7*%
X331152500Y-29115000D03*
%TD*%
%TO.C,H8*%
X240665000Y-29115000D03*
%TD*%
D13*
%TO.C,J4*%
X71596249Y-22214999D03*
D14*
X71596249Y-19674999D03*
X71596249Y-17134999D03*
X71596249Y-14594999D03*
%TD*%
D12*
%TO.C,H9*%
X71596250Y-29115000D03*
%TD*%
%TO.C,H6*%
X20065000Y-106840000D03*
%TD*%
%TO.C,H3*%
X231140000Y-87640000D03*
%TD*%
%TO.C,H10*%
X178752500Y-34115000D03*
%TD*%
%TO.C,H2*%
X98927500Y-68540000D03*
%TD*%
D13*
%TO.C,J2*%
X15239999Y-32861249D03*
D14*
X15239999Y-35401249D03*
X15239999Y-37941249D03*
X15239999Y-40481249D03*
%TD*%
D13*
%TO.C,J3*%
X14922499Y-87312499D03*
D14*
X14922499Y-89852499D03*
X14922499Y-92392499D03*
X14922499Y-94932499D03*
X14922499Y-97472499D03*
X14922499Y-100012499D03*
X14922499Y-102552499D03*
X14922499Y-105092499D03*
%TD*%
D13*
%TO.C,X1*%
X30162499Y-117474999D03*
D14*
X27622499Y-117474999D03*
X30162499Y-114934999D03*
X27622499Y-114934999D03*
X30162499Y-112394999D03*
X27622499Y-112394999D03*
X30162499Y-109854999D03*
X27622499Y-109854999D03*
X30162499Y-107314999D03*
X27622499Y-107314999D03*
%TD*%
D15*
%TO.C,MX66*%
X107632500Y-21590000D03*
D16*
X102552500Y-26670000D03*
D17*
X102552500Y-21590000D03*
D15*
X97472500Y-21590000D03*
%TD*%
%TO.C,MX3*%
X350520000Y-69215000D03*
D16*
X345440000Y-74295000D03*
D17*
X345440000Y-69215000D03*
D15*
X340360000Y-69215000D03*
%TD*%
%TO.C,MX79*%
X45720000Y-21590000D03*
D16*
X40640000Y-26670000D03*
D17*
X40640000Y-21590000D03*
D15*
X35560000Y-21590000D03*
%TD*%
%TO.C,MX63*%
X131445000Y-88265000D03*
D16*
X126365000Y-93345000D03*
D17*
X126365000Y-88265000D03*
D15*
X121285000Y-88265000D03*
%TD*%
%TO.C,MX8*%
X326707500Y-69215000D03*
D16*
X321627500Y-74295000D03*
D17*
X321627500Y-69215000D03*
D15*
X316547500Y-69215000D03*
%TD*%
%TO.C,MX68*%
X117157500Y-69215000D03*
D16*
X112077500Y-74295000D03*
D17*
X112077500Y-69215000D03*
D15*
X106997500Y-69215000D03*
%TD*%
%TO.C,MX84*%
X26670000Y-21590000D03*
D16*
X21590000Y-26670000D03*
D17*
X21590000Y-21590000D03*
D15*
X16510000Y-21590000D03*
%TD*%
D18*
%TO.C,FID5*%
X356552500Y-35877500D03*
%TD*%
D15*
%TO.C,MX19*%
X288607500Y-69215000D03*
D16*
X283527500Y-74295000D03*
D17*
X283527500Y-69215000D03*
D15*
X278447500Y-69215000D03*
%TD*%
D19*
%TO.C,R1*%
X151412807Y-22748528D03*
X152432807Y-22748528D03*
%TD*%
D15*
%TO.C,MX4*%
X348138750Y-88265000D03*
D16*
X343058750Y-93345000D03*
D17*
X343058750Y-88265000D03*
D15*
X337978750Y-88265000D03*
%TD*%
%TO.C,MX45*%
X193357500Y-69215000D03*
D16*
X188277500Y-74295000D03*
D17*
X188277500Y-69215000D03*
D15*
X183197500Y-69215000D03*
%TD*%
%TO.C,MX27*%
X260032500Y-21590000D03*
D16*
X254952500Y-26670000D03*
D17*
X254952500Y-21590000D03*
D15*
X249872500Y-21590000D03*
%TD*%
%TO.C,MX75*%
X64770000Y-21590000D03*
D16*
X59690000Y-26670000D03*
D17*
X59690000Y-21590000D03*
D15*
X54610000Y-21590000D03*
%TD*%
%TO.C,MX33*%
X231457500Y-21590000D03*
D16*
X226377500Y-26670000D03*
D17*
X226377500Y-21590000D03*
D15*
X221297500Y-21590000D03*
%TD*%
%TO.C,MX23*%
X279082500Y-50165000D03*
D16*
X274002500Y-55245000D03*
D17*
X274002500Y-50165000D03*
D15*
X268922500Y-50165000D03*
%TD*%
%TO.C,MX52*%
X179070000Y-107315000D03*
D16*
X173990000Y-112395000D03*
D17*
X173990000Y-107315000D03*
D15*
X168910000Y-107315000D03*
%TD*%
%TO.C,MX30*%
X245745000Y-88265000D03*
D16*
X240665000Y-93345000D03*
D17*
X240665000Y-88265000D03*
D15*
X235585000Y-88265000D03*
%TD*%
%TO.C,MX42*%
X217170000Y-107315000D03*
D16*
X212090000Y-112395000D03*
D17*
X212090000Y-107315000D03*
D15*
X207010000Y-107315000D03*
%TD*%
D20*
%TO.C,J1*%
X152049998Y-18321250D03*
X157829998Y-18321250D03*
D21*
X151739997Y-19396249D03*
X152539997Y-19396249D03*
D22*
X153689997Y-19396249D03*
X154689997Y-19396249D03*
X155189997Y-19396249D03*
X156189997Y-19396249D03*
D21*
X157339997Y-19396249D03*
X158139997Y-19396249D03*
X158139997Y-19396249D03*
X157339997Y-19396249D03*
D22*
X156689997Y-19396249D03*
X155689997Y-19396249D03*
X154189997Y-19396249D03*
X153189997Y-19396249D03*
D21*
X152539997Y-19396249D03*
X151739997Y-19396249D03*
D23*
X150619997Y-14641249D03*
D24*
X150619997Y-18821249D03*
D23*
X159259997Y-14641249D03*
D24*
X159259997Y-18821249D03*
%TD*%
D15*
%TO.C,MX16*%
X305276250Y-126365000D03*
D16*
X300196250Y-131445000D03*
D17*
X300196250Y-126365000D03*
D15*
X295116250Y-126365000D03*
%TD*%
%TO.C,MX64*%
X140970000Y-107315000D03*
D16*
X135890000Y-112395000D03*
D17*
X135890000Y-107315000D03*
D15*
X130810000Y-107315000D03*
%TD*%
%TO.C,MX87*%
X26670000Y-126365000D03*
D16*
X21590000Y-131445000D03*
D17*
X21590000Y-126365000D03*
D15*
X16510000Y-126365000D03*
%TD*%
%TO.C,MX44*%
X202882500Y-50165000D03*
D16*
X197802500Y-55245000D03*
D17*
X197802500Y-50165000D03*
D15*
X192722500Y-50165000D03*
%TD*%
%TO.C,MX38*%
X212407500Y-21590000D03*
D16*
X207327500Y-26670000D03*
D17*
X207327500Y-21590000D03*
D15*
X202247500Y-21590000D03*
%TD*%
%TO.C,MX35*%
X231457500Y-69215000D03*
D16*
X226377500Y-74295000D03*
D17*
X226377500Y-69215000D03*
D15*
X221297500Y-69215000D03*
%TD*%
%TO.C,MX14*%
X302895000Y-88265000D03*
D16*
X297815000Y-93345000D03*
D17*
X297815000Y-88265000D03*
D15*
X292735000Y-88265000D03*
%TD*%
%TO.C,MX82*%
X45720000Y-107315000D03*
D16*
X40640000Y-112395000D03*
D17*
X40640000Y-107315000D03*
D15*
X35560000Y-107315000D03*
%TD*%
D17*
%TO.C,MX5*%
X350234250Y-115570000D03*
D25*
X350234250Y-100330000D03*
D15*
X343376250Y-107315000D03*
D16*
X338296250Y-112395000D03*
D17*
X338296250Y-107315000D03*
D15*
X333216250Y-107315000D03*
D17*
X326358250Y-115570000D03*
D25*
X326358250Y-100330000D03*
%TD*%
D15*
%TO.C,MX26*%
X274320000Y-107315000D03*
D16*
X269240000Y-112395000D03*
D17*
X269240000Y-107315000D03*
D15*
X264160000Y-107315000D03*
%TD*%
%TO.C,MX80*%
X45720000Y-50165000D03*
D16*
X40640000Y-55245000D03*
D17*
X40640000Y-50165000D03*
D15*
X35560000Y-50165000D03*
%TD*%
%TO.C,MX59*%
X138588750Y-126365000D03*
D16*
X133508750Y-131445000D03*
D17*
X133508750Y-126365000D03*
D15*
X128428750Y-126365000D03*
%TD*%
%TO.C,MX48*%
X174307500Y-21590000D03*
D16*
X169227500Y-26670000D03*
D17*
X169227500Y-21590000D03*
D15*
X164147500Y-21590000D03*
%TD*%
%TO.C,MX46*%
X188595000Y-88265000D03*
D16*
X183515000Y-93345000D03*
D17*
X183515000Y-88265000D03*
D15*
X178435000Y-88265000D03*
%TD*%
%TO.C,MX71*%
X93345000Y-69215000D03*
D16*
X88265000Y-74295000D03*
D17*
X88265000Y-69215000D03*
D15*
X83185000Y-69215000D03*
%TD*%
%TO.C,MX22*%
X279082500Y-21590000D03*
D16*
X274002500Y-26670000D03*
D17*
X274002500Y-21590000D03*
D15*
X268922500Y-21590000D03*
%TD*%
%TO.C,MX39*%
X221932500Y-50165000D03*
D16*
X216852500Y-55245000D03*
D17*
X216852500Y-50165000D03*
D15*
X211772500Y-50165000D03*
%TD*%
D26*
%TO.C,U2*%
X155890000Y-27172500D03*
X154940000Y-27172500D03*
X153990000Y-27172500D03*
X153990000Y-24897500D03*
X154940000Y-24897500D03*
X155890000Y-24897500D03*
%TD*%
D15*
%TO.C,MX11*%
X317182500Y-21590000D03*
D16*
X312102500Y-26670000D03*
D17*
X312102500Y-21590000D03*
D15*
X307022500Y-21590000D03*
%TD*%
%TO.C,MX25*%
X264795000Y-88265000D03*
D16*
X259715000Y-93345000D03*
D17*
X259715000Y-88265000D03*
D15*
X254635000Y-88265000D03*
%TD*%
%TO.C,MX6*%
X352901250Y-126365000D03*
D16*
X347821250Y-131445000D03*
D17*
X347821250Y-126365000D03*
D15*
X342741250Y-126365000D03*
%TD*%
%TO.C,MX31*%
X255270000Y-107315000D03*
D16*
X250190000Y-112395000D03*
D17*
X250190000Y-107315000D03*
D15*
X245110000Y-107315000D03*
%TD*%
%TO.C,MX37*%
X236220000Y-107315000D03*
D16*
X231140000Y-112395000D03*
D17*
X231140000Y-107315000D03*
D15*
X226060000Y-107315000D03*
%TD*%
%TO.C,MX40*%
X212407500Y-69215000D03*
D16*
X207327500Y-74295000D03*
D17*
X207327500Y-69215000D03*
D15*
X202247500Y-69215000D03*
%TD*%
%TO.C,MX9*%
X321945000Y-88265000D03*
D16*
X316865000Y-93345000D03*
D17*
X316865000Y-88265000D03*
D15*
X311785000Y-88265000D03*
%TD*%
D18*
%TO.C,FID4*%
X50165000Y-17621250D03*
%TD*%
D15*
%TO.C,MX81*%
X45720000Y-69215000D03*
D16*
X40640000Y-74295000D03*
D17*
X40640000Y-69215000D03*
D15*
X35560000Y-69215000D03*
%TD*%
D17*
%TO.C,MX72*%
X107346750Y-96513050D03*
D25*
X107346750Y-81273050D03*
D15*
X100488750Y-88258050D03*
D16*
X95408750Y-93338050D03*
D17*
X95408750Y-88258050D03*
D15*
X90328750Y-88258050D03*
D17*
X83470750Y-96513050D03*
D25*
X83470750Y-81273050D03*
%TD*%
D15*
%TO.C,MX13*%
X307657500Y-69215000D03*
D16*
X302577500Y-74295000D03*
D17*
X302577500Y-69215000D03*
D15*
X297497500Y-69215000D03*
%TD*%
%TO.C,MX60*%
X126682500Y-21590000D03*
D16*
X121602500Y-26670000D03*
D17*
X121602500Y-21590000D03*
D15*
X116522500Y-21590000D03*
%TD*%
%TO.C,MX77*%
X64770000Y-69215000D03*
D16*
X59690000Y-74295000D03*
D17*
X59690000Y-69215000D03*
D15*
X54610000Y-69215000D03*
%TD*%
%TO.C,MX58*%
X160020000Y-107315000D03*
D16*
X154940000Y-112395000D03*
D17*
X154940000Y-107315000D03*
D15*
X149860000Y-107315000D03*
%TD*%
%TO.C,MX56*%
X155257500Y-69215000D03*
D16*
X150177500Y-74295000D03*
D17*
X150177500Y-69215000D03*
D15*
X145097500Y-69215000D03*
%TD*%
%TO.C,MX36*%
X226695000Y-88265000D03*
D16*
X221615000Y-93345000D03*
D17*
X221615000Y-88265000D03*
D15*
X216535000Y-88265000D03*
%TD*%
D17*
%TO.C,MX73*%
X112109250Y-115570000D03*
D25*
X112109250Y-100330000D03*
D15*
X105251250Y-107315000D03*
D16*
X100171250Y-112395000D03*
D17*
X100171250Y-107315000D03*
D15*
X95091250Y-107315000D03*
D17*
X88233250Y-115570000D03*
D25*
X88233250Y-100330000D03*
%TD*%
D15*
%TO.C,MX54*%
X145732500Y-21590000D03*
D16*
X140652500Y-26670000D03*
D17*
X140652500Y-21590000D03*
D15*
X135572500Y-21590000D03*
%TD*%
%TO.C,MX74*%
X90963750Y-126365000D03*
D16*
X85883750Y-131445000D03*
D17*
X85883750Y-126365000D03*
D15*
X80803750Y-126365000D03*
%TD*%
%TO.C,MX2*%
X355282500Y-50165000D03*
D16*
X350202500Y-55245000D03*
D17*
X350202500Y-50165000D03*
D15*
X345122500Y-50165000D03*
%TD*%
D27*
%TO.C,R2*%
X158484107Y-22758784D03*
X157464107Y-22758784D03*
%TD*%
D15*
%TO.C,MX49*%
X183832500Y-50165000D03*
D16*
X178752500Y-55245000D03*
D17*
X178752500Y-50165000D03*
D15*
X173672500Y-50165000D03*
%TD*%
%TO.C,MX10*%
X329088750Y-126365000D03*
D16*
X324008750Y-131445000D03*
D17*
X324008750Y-126365000D03*
D15*
X318928750Y-126365000D03*
%TD*%
%TO.C,MX34*%
X240982500Y-50165000D03*
D16*
X235902500Y-55245000D03*
D17*
X235902500Y-50165000D03*
D15*
X230822500Y-50165000D03*
%TD*%
%TO.C,MX85*%
X26670000Y-50165000D03*
D16*
X21590000Y-55245000D03*
D17*
X21590000Y-50165000D03*
D15*
X16510000Y-50165000D03*
%TD*%
D17*
%TO.C,MX32*%
X278758650Y-134613050D03*
D25*
X278758650Y-119373050D03*
D15*
X233838750Y-126358050D03*
D16*
X228758750Y-131438050D03*
D17*
X228758750Y-126358050D03*
D15*
X223678750Y-126358050D03*
D17*
X178758850Y-134613050D03*
D25*
X178758850Y-119373050D03*
%TD*%
D15*
%TO.C,MX43*%
X193357500Y-21590000D03*
D16*
X188277500Y-26670000D03*
D17*
X188277500Y-21590000D03*
D15*
X183197500Y-21590000D03*
%TD*%
%TO.C,MX21*%
X293370000Y-107315000D03*
D16*
X288290000Y-112395000D03*
D17*
X288290000Y-107315000D03*
D15*
X283210000Y-107315000D03*
%TD*%
%TO.C,MX15*%
X312420000Y-107315000D03*
D16*
X307340000Y-112395000D03*
D17*
X307340000Y-107315000D03*
D15*
X302260000Y-107315000D03*
%TD*%
%TO.C,MX18*%
X298132500Y-50165000D03*
D16*
X293052500Y-55245000D03*
D17*
X293052500Y-50165000D03*
D15*
X287972500Y-50165000D03*
%TD*%
%TO.C,MX17*%
X298132500Y-21590000D03*
D16*
X293052500Y-26670000D03*
D17*
X293052500Y-21590000D03*
D15*
X287972500Y-21590000D03*
%TD*%
%TO.C,MX41*%
X207645000Y-88265000D03*
D16*
X202565000Y-93345000D03*
D17*
X202565000Y-88265000D03*
D15*
X197485000Y-88265000D03*
%TD*%
%TO.C,MX69*%
X88582500Y-21590000D03*
D16*
X83502500Y-26670000D03*
D17*
X83502500Y-21590000D03*
D15*
X78422500Y-21590000D03*
%TD*%
%TO.C,MX76*%
X64770000Y-50165000D03*
D16*
X59690000Y-55245000D03*
D17*
X59690000Y-50165000D03*
D15*
X54610000Y-50165000D03*
%TD*%
%TO.C,MX78*%
X64770000Y-126365000D03*
D16*
X59690000Y-131445000D03*
D17*
X59690000Y-126365000D03*
D15*
X54610000Y-126365000D03*
%TD*%
%TO.C,MX65*%
X114776250Y-126365000D03*
D16*
X109696250Y-131445000D03*
D17*
X109696250Y-126365000D03*
D15*
X104616250Y-126365000D03*
%TD*%
%TO.C,MX7*%
X336232500Y-50165000D03*
D16*
X331152500Y-55245000D03*
D17*
X331152500Y-50165000D03*
D15*
X326072500Y-50165000D03*
%TD*%
D17*
%TO.C,MX70*%
X104965500Y-58420000D03*
D25*
X104965500Y-43180000D03*
D15*
X98107500Y-50165000D03*
D16*
X93027500Y-55245000D03*
D17*
X93027500Y-50165000D03*
D15*
X87947500Y-50165000D03*
D17*
X81089500Y-58420000D03*
D25*
X81089500Y-43180000D03*
%TD*%
D15*
%TO.C,MX50*%
X174307500Y-69215000D03*
D16*
X169227500Y-74295000D03*
D17*
X169227500Y-69215000D03*
D15*
X164147500Y-69215000D03*
%TD*%
%TO.C,MX61*%
X145732500Y-50165000D03*
D16*
X140652500Y-55245000D03*
D17*
X140652500Y-50165000D03*
D15*
X135572500Y-50165000D03*
%TD*%
%TO.C,MX53*%
X162401250Y-126365000D03*
D16*
X157321250Y-131445000D03*
D17*
X157321250Y-126365000D03*
D15*
X152241250Y-126365000D03*
%TD*%
%TO.C,MX20*%
X283845000Y-88265000D03*
D16*
X278765000Y-93345000D03*
D17*
X278765000Y-88265000D03*
D15*
X273685000Y-88265000D03*
%TD*%
D18*
%TO.C,FID6*%
X337343750Y-120173750D03*
%TD*%
D15*
%TO.C,MX57*%
X150495000Y-88265000D03*
D16*
X145415000Y-93345000D03*
D17*
X145415000Y-88265000D03*
D15*
X140335000Y-88265000D03*
%TD*%
%TO.C,MX12*%
X317182500Y-50165000D03*
D16*
X312102500Y-55245000D03*
D17*
X312102500Y-50165000D03*
D15*
X307022500Y-50165000D03*
%TD*%
%TO.C,MX47*%
X198120000Y-107315000D03*
D16*
X193040000Y-112395000D03*
D17*
X193040000Y-107315000D03*
D15*
X187960000Y-107315000D03*
%TD*%
%TO.C,MX55*%
X164782500Y-50165000D03*
D16*
X159702500Y-55245000D03*
D17*
X159702500Y-50165000D03*
D15*
X154622500Y-50165000D03*
%TD*%
%TO.C,MX86*%
X26670000Y-69215000D03*
D16*
X21590000Y-74295000D03*
D17*
X21590000Y-69215000D03*
D15*
X16510000Y-69215000D03*
%TD*%
%TO.C,MX83*%
X45720000Y-126365000D03*
D16*
X40640000Y-131445000D03*
D17*
X40640000Y-126365000D03*
D15*
X35560000Y-126365000D03*
%TD*%
%TO.C,MX1*%
X355282500Y-21590000D03*
D16*
X350202500Y-26670000D03*
D17*
X350202500Y-21590000D03*
D15*
X345122500Y-21590000D03*
%TD*%
%TO.C,MX29*%
X250507500Y-69215000D03*
D16*
X245427500Y-74295000D03*
D17*
X245427500Y-69215000D03*
D15*
X240347500Y-69215000D03*
%TD*%
%TO.C,MX28*%
X260032500Y-50165000D03*
D16*
X254952500Y-55245000D03*
D17*
X254952500Y-50165000D03*
D15*
X249872500Y-50165000D03*
%TD*%
%TO.C,MX62*%
X136207500Y-69215000D03*
D16*
X131127500Y-74295000D03*
D17*
X131127500Y-69215000D03*
D15*
X126047500Y-69215000D03*
%TD*%
%TO.C,MX51*%
X169545000Y-88265000D03*
D16*
X164465000Y-93345000D03*
D17*
X164465000Y-88265000D03*
D15*
X159385000Y-88265000D03*
%TD*%
%TO.C,MX24*%
X269557500Y-69215000D03*
D16*
X264477500Y-74295000D03*
D17*
X264477500Y-69215000D03*
D15*
X259397500Y-69215000D03*
%TD*%
%TO.C,MX67*%
X126682500Y-50165000D03*
D16*
X121602500Y-55245000D03*
D17*
X121602500Y-50165000D03*
D15*
X116522500Y-50165000D03*
%TD*%
M02*
