M48
; DRILL file {KiCad (7.0.0)} date Mon Jun 19 20:50:26 2023
; FORMAT={-:-/ absolute / inch / decimal}
; #@! TF.CreationDate,2023-06-19T20:50:26+08:00
; #@! TF.GenerationSoftware,Kicad,Pcbnew,(7.0.0)
; #@! TF.FileFunction,Plated,1,2,PTH
FMAT,2
INCH
; #@! TA.AperFunction,Plated,PTH,ViaDrill
T1C0.0118
; #@! TA.AperFunction,Plated,PTH,ViaDrill
T2C0.0157
; #@! TA.AperFunction,Plated,PTH,ViaDrill
T3C0.0197
; #@! TA.AperFunction,Plated,PTH,ComponentDrill
T4C0.0236
; #@! TA.AperFunction,Plated,PTH,ComponentDrill
T5C0.0394
; #@! TA.AperFunction,Plated,PTH,ComponentDrill
T6C0.0579
; #@! TA.AperFunction,Plated,PTH,ComponentDrill
T7C0.0866
%
G90
G05
T1
X0.5Y-3.1125
X0.525Y-0.9
X0.5312Y-1.0687
X0.5437Y-4.3
X0.55Y-2.1313
X0.55Y-2.4438
X0.55Y-3.2188
X0.5563Y-3.1062
X0.575Y-1.1125
X0.5812Y-4.8875
X0.5875Y-0.5875
X0.5875Y-2.975
X0.5875Y-5.2375
X0.5938Y-1.7312
X0.6312Y-2.9
X0.6375Y-2.1938
X0.6437Y-0.725
X0.65Y-2.5812
X0.6625Y-4.4312
X0.675Y-1.3438
X0.675Y-3.8312
X0.7Y-4.0
X0.75Y-3.8813
X0.7875Y-0.5625
X0.8438Y-4.8438
X0.8937Y-4.6562
X0.9125Y-3.1062
X0.9437Y-1.1875
X1.0312Y-2.8438
X1.0813Y-0.9812
X1.0938Y-0.6
X1.0938Y-1.1
X1.1Y-1.7437
X1.1125Y-2.125
X1.1187Y-2.4625
X1.1438Y-5.175
X1.15Y-1.7063
X1.1687Y-4.8187
X1.175Y-2.7625
X1.1937Y-2.975
X1.2312Y-5.15
X1.2375Y-4.0687
X1.2375Y-4.125
X1.2688Y-1.2
X1.2875Y-4.4437
X1.2875Y-4.6937
X1.3187Y-2.175
X1.325Y-1.1187
X1.3375Y-2.925
X1.3375Y-4.8687
X1.3438Y-3.125
X1.3438Y-4.1562
X1.375Y-2.2937
X1.3875Y-0.6562
X1.3938Y-4.7938
X1.4Y-1.7063
X1.4Y-5.2125
X1.4406Y-2.9283
X1.575Y-3.7812
X1.6125Y-2.4875
X1.65Y-3.0875
X1.6812Y-3.2687
X1.6875Y-4.725
X1.6937Y-1.1937
X1.6937Y-3.8813
X1.6937Y-3.9187
X1.6937Y-3.9567
X1.7688Y-3.0875
X1.7937Y-1.7812
X1.8Y-2.5437
X1.8Y-2.9438
X1.8062Y-3.2062
X1.8187Y-0.625
X1.825Y-4.4125
X1.8313Y-2.8562
X1.8313Y-3.8375
X1.8375Y-4.3187
X1.8438Y-4.0625
X1.8625Y-1.1125
X1.8625Y-2.1437
X1.8625Y-4.7375
X1.8625Y-5.175
X1.8687Y-3.5
X1.8875Y-3.0875
X1.8938Y-3.9625
X1.9062Y-0.9812
X1.925Y-4.3812
X1.925Y-4.4437
X1.9312Y-2.1437
X1.9437Y-3.4375
X1.9688Y-3.3875
X1.9875Y-5.1437
X1.9969Y-4.1125
X2.0Y-1.2
X2.0063Y-4.0438
X2.0125Y-4.2188
X2.0125Y-4.3187
X2.0125Y-4.3812
X2.0125Y-4.4437
X2.0688Y-1.1187
X2.0701Y-4.1142
X2.0875Y-2.925
X2.0875Y-4.7188
X2.0938Y-1.6062
X2.0938Y-1.6625
X2.0938Y-2.475
X2.0938Y-5.2375
X2.1062Y-2.7875
X2.1134Y-3.9508
X2.1187Y-1.2
X2.125Y-0.6125
X2.1313Y-2.1625
X2.1313Y-2.2812
X2.176Y-2.922
X2.2027Y-3.2215
X2.2312Y-5.0187
X2.2625Y-3.9688
X2.3312Y-3.3687
X2.35Y-3.7625
X2.3687Y-1.725
X2.3687Y-2.4937
X2.4312Y-1.1875
X2.4673Y-2.0969
X2.5063Y-3.0063
X2.5187Y-3.6687
X2.5312Y-2.8875
X2.5312Y-3.3375
X2.5375Y-0.9812
X2.5375Y-2.825
X2.5375Y-2.9375
X2.575Y-1.0813
X2.575Y-1.7125
X2.5875Y-0.6062
X2.5938Y-2.0375
X2.5938Y-2.1938
X2.6125Y-2.4688
X2.6125Y-4.7812
X2.6125Y-5.175
X2.625Y-1.0813
X2.625Y-2.9937
X2.6313Y-1.9688
X2.6375Y-1.1812
X2.6375Y-2.15
X2.675Y-1.0813
X2.6811Y-5.1177
X2.7Y-0.8375
X2.7188Y-1.625
X2.725Y-1.05
X2.7312Y-2.3625
X2.7625Y-2.775
X2.7625Y-2.9812
X2.7937Y-3.6812
X2.8625Y-2.1313
X2.8625Y-2.775
X2.8625Y-2.9875
X2.8875Y-0.9812
X2.9187Y-1.6062
X2.9375Y-3.525
X2.939Y-5.0378
X2.9688Y-0.9062
X2.9688Y-1.2
X2.9937Y-2.3562
X3.0063Y-2.1187
X3.0125Y-1.1187
X3.0562Y-1.2063
X3.0688Y-1.4625
X3.075Y-0.6937
X3.075Y-1.7812
X3.1Y-2.0688
X3.1Y-2.1375
X3.1125Y-5.225
X3.1187Y-2.8188
X3.1187Y-2.8904
X3.15Y-3.05
X3.15Y-4.775
X3.1728Y-3.248
X3.2Y-4.3312
X3.2125Y-2.975
X3.3937Y-1.4563
X3.4062Y-1.1875
X3.4125Y-3.1
X3.425Y-2.2312
X3.4312Y-1.75
X3.475Y-3.5063
X3.525Y-0.9812
X3.525Y-3.2312
X3.5375Y-0.6
X3.5375Y-1.0938
X3.5875Y-4.4688
X3.5938Y-4.2375
X3.6268Y-3.0185
X3.6313Y-4.7188
X3.6437Y-5.1437
X3.6812Y-2.475
X3.6812Y-4.475
X3.725Y-2.9688
X3.7375Y-3.9688
X3.75Y-1.725
X3.75Y-2.5875
X3.7563Y-1.1187
X3.7937Y-1.2063
X3.7937Y-2.8562
X3.8Y-1.4688
X3.8937Y-5.1437
X3.9187Y-3.2
X3.925Y-2.1437
X3.9625Y-4.6875
X3.9854Y-2.3571
X4.0187Y-3.6437
X4.0312Y-2.0125
X4.0625Y-4.7938
X4.0625Y-5.2313
X4.1315Y-3.6303
X4.15Y-2.975
X4.2313Y-1.6687
X4.275Y-0.9812
X4.2812Y-2.3188
X4.2875Y-1.1062
X4.2938Y-0.5875
X4.3125Y-4.2375
X4.3312Y-3.7062
X4.3375Y-3.2937
X4.3476Y-2.1067
X4.4625Y-1.2125
X4.4688Y-1.4688
X4.5125Y-1.1187
X4.525Y-4.475
X4.55Y-1.7312
X4.5562Y-2.2188
X4.5562Y-4.7062
X4.5625Y-3.1812
X4.5812Y-2.4875
X4.5812Y-5.1437
X4.6125Y-4.9
X4.675Y-2.9875
X4.6875Y-2.6125
X4.7Y-3.7125
X4.7125Y-3.2125
X4.7375Y-2.8562
X4.7437Y-4.425
X4.7559Y-4.3547
X4.8062Y-1.4625
X4.8375Y-5.15
X4.8563Y-3.525
X4.8875Y-1.7188
X4.9Y-2.975
X4.9688Y-4.6063
X4.9937Y-4.8312
X5.0Y-5.2313
X5.0312Y-1.1
X5.0438Y-0.6
X5.05Y-2.1437
X5.0875Y-3.975
X5.0875Y-4.475
X5.1125Y-0.9812
X5.1812Y-3.2188
X5.2375Y-2.25
X5.2375Y-3.6437
X5.2562Y-1.1125
X5.2625Y-0.5812
X5.2938Y-1.7437
X5.2938Y-2.175
X5.3125Y-3.1375
X5.3125Y-3.8625
X5.3375Y-2.4875
X5.3687Y-1.2188
X5.4188Y-3.6562
X5.425Y-2.6125
X5.425Y-2.9875
X5.45Y-3.75
X5.4562Y-3.2125
X5.4875Y-2.8562
X5.5125Y-4.7375
X5.5187Y-5.1437
X5.575Y-5.0062
X5.6Y-3.5187
X5.6063Y-4.4937
X5.6125Y-4.1812
X5.6375Y-0.975
X5.6375Y-1.725
X5.6437Y-1.1562
X5.65Y-2.975
X5.6562Y-4.3563
X5.7375Y-0.6
X5.7562Y-1.0062
X5.7562Y-1.0687
X5.7812Y-0.95
X5.7812Y-5.15
X5.8Y-2.1437
X5.8375Y-4.475
X5.8375Y-4.7437
X5.85Y-3.9688
X5.8563Y-1.1438
X5.9125Y-3.2125
X5.9375Y-5.2313
X5.9562Y-1.4625
X5.9875Y-1.0062
X5.9875Y-1.0687
X5.9875Y-2.2563
X5.9875Y-3.6437
X5.9937Y-4.825
X6.0375Y-2.1687
X6.05Y-1.7375
X6.0562Y-0.8312
X6.0625Y-3.1125
X6.0625Y-4.9125
X6.0626Y-0.8812
X6.0812Y-3.8687
X6.0938Y-2.4937
X6.1098Y-0.8598
X6.1437Y-0.825
X6.175Y-2.6062
X6.175Y-2.9875
X6.175Y-3.65
X6.1875Y-0.6375
X6.1875Y-3.2
X6.2062Y-3.7563
X6.225Y-2.8562
X6.3312Y-0.9812
X6.3375Y-1.0625
X6.3438Y-0.9062
X6.3438Y-4.4875
X6.3563Y-3.525
X6.3563Y-4.1312
X6.3875Y-1.1125
X6.4Y-2.975
X6.4062Y-0.525
X6.4312Y-1.7125
X6.4312Y-4.3563
X6.4375Y-0.7687
X6.45Y-4.7188
X6.4562Y-5.1437
X6.55Y-2.1437
X6.575Y-5.1812
X6.5875Y-4.475
X6.6Y-3.9688
X6.6562Y-3.2125
X6.7Y-5.1063
X6.7313Y-2.2437
X6.7375Y-3.6437
X6.7875Y-1.7312
X6.7875Y-2.175
X6.8312Y-2.4937
X6.85Y-3.8625
X6.8625Y-5.2437
X6.8875Y-4.7687
X6.8937Y-0.9812
X6.9125Y-0.6
X6.9125Y-3.1938
X6.9188Y-1.1062
X6.9188Y-2.9875
X6.9312Y-3.65
X6.9375Y-2.6187
X6.9437Y-2.4937
X6.95Y-2.8562
X6.9562Y-3.7563
X7.025Y-5.0187
X7.0938Y-3.5187
X7.0938Y-4.3563
X7.1063Y-4.1375
X7.1063Y-4.4813
X7.1312Y-1.1125
X7.15Y-2.975
X7.2313Y-2.3
X7.2437Y-1.7188
X7.3Y-2.1437
X7.325Y-3.975
X7.3375Y-4.475
X7.4125Y-3.2125
X7.4875Y-2.2563
X7.4875Y-3.6437
X7.5375Y-1.7312
X7.5562Y-2.1687
X7.5938Y-2.4937
X7.6Y-3.85
X7.6562Y-3.2
X7.6688Y-1.1125
X7.6688Y-2.9875
X7.675Y-0.6625
X7.675Y-3.6562
X7.6812Y-2.6062
X7.7062Y-0.9812
X7.7125Y-3.7563
X7.7188Y-2.4688
X7.725Y-0.5
X7.7313Y-2.8562
X7.75Y-3.25
X7.85Y-4.3563
X7.8563Y-3.525
X7.8563Y-4.1187
X7.8563Y-4.4875
X7.875Y-3.95
X7.8812Y-1.1125
X7.9Y-2.975
X7.9688Y-2.3
X7.9813Y-1.7312
X8.05Y-2.1437
X8.0875Y-4.475
X8.1625Y-3.2125
X8.225Y-3.3625
X8.2375Y-2.2625
X8.2375Y-3.6437
X8.2875Y-1.725
X8.2937Y-2.1687
X8.3187Y-2.4688
X8.3187Y-3.8562
X8.3688Y-5.1688
X8.3812Y-3.65
X8.4125Y-0.6125
X8.425Y-1.1125
X8.425Y-2.6125
X8.4375Y-3.0
X8.4375Y-3.75
X8.4812Y-2.8562
X8.4938Y-0.9812
X8.4938Y-2.4438
X8.5062Y-3.2375
X8.575Y-4.3563
X8.6Y-3.5312
X8.6062Y-4.4813
X8.6125Y-4.15
X8.6312Y-1.1062
X8.65Y-2.975
X8.7Y-1.725
X8.7312Y-2.3062
X8.7562Y-4.7313
X8.8Y-2.1437
X8.8375Y-3.9688
X8.8375Y-4.475
X8.9125Y-3.2125
X8.9875Y-2.2563
X8.9875Y-3.6437
X9.0375Y-1.7188
X9.0375Y-2.1687
X9.0563Y-2.4688
X9.0812Y-3.8562
X9.1625Y-0.9812
X9.1625Y-1.1
X9.1625Y-2.6313
X9.1625Y-3.6437
X9.175Y-0.6
X9.1937Y-3.0
X9.1937Y-3.7563
X9.2312Y-2.8562
X9.2312Y-3.2812
X9.25Y-2.4375
X9.2687Y-0.5062
X9.2687Y-5.1437
X9.2812Y-5.2562
X9.3125Y-4.7812
X9.3187Y-4.3563
X9.35Y-4.1437
X9.3562Y-4.4937
X9.3625Y-3.5187
X9.4Y-2.975
X9.4812Y-2.2937
X9.4938Y-5.1063
X9.5437Y-1.725
X9.55Y-2.1437
X9.5687Y-0.8625
X9.5875Y-3.9625
X9.5875Y-4.475
X9.7Y-3.1938
X9.7375Y-3.6437
X9.7438Y-2.25
X9.7625Y-1.1062
X9.7937Y-2.1687
X9.8125Y-2.475
X9.8187Y-1.7125
X9.825Y-3.8625
X9.9125Y-3.6625
X9.925Y-2.6125
X9.9375Y-3.0063
X9.9688Y-2.8562
X9.9812Y-3.225
X10.0187Y-2.4187
X10.1Y-4.3563
X10.1062Y-3.525
X10.1062Y-4.1437
X10.1062Y-4.4875
X10.15Y-2.975
X10.225Y-2.2937
X10.2875Y-0.9812
X10.2937Y-0.5875
X10.2937Y-1.1062
X10.3Y-1.725
X10.3Y-2.1437
X10.3375Y-3.9688
X10.3375Y-4.475
X10.3562Y-3.225
X10.4313Y-0.5062
X10.4875Y-2.25
X10.4875Y-3.6437
X10.5125Y-1.1
X10.5375Y-0.6
X10.5375Y-1.7125
X10.55Y-2.1687
X10.55Y-2.4688
X10.675Y-2.5938
X10.6813Y-3.0
X10.7Y-3.6562
X10.7062Y-3.2125
X10.7062Y-3.7563
X10.7312Y-2.8562
X10.7812Y-2.4062
X10.7875Y-5.225
X10.8187Y-4.8625
X10.8375Y-4.3563
X10.8438Y-3.9688
X10.8562Y-4.4875
X10.9Y-2.975
X11.0187Y-0.6188
X11.0375Y-1.7188
X11.0375Y-2.2812
X11.05Y-2.1437
X11.0875Y-3.225
X11.0875Y-4.475
X11.0938Y-3.5
X11.0938Y-3.9688
X11.1106Y-0.9791
X11.2438Y-2.2563
X11.2562Y-1.1062
X11.2625Y-3.6375
X11.275Y-0.5938
X11.275Y-1.7188
X11.2937Y-2.175
X11.3312Y-2.4625
X11.3438Y-0.5062
X11.3937Y-3.6625
X11.4313Y-2.5938
X11.4313Y-2.9875
X11.45Y-3.2062
X11.45Y-3.975
X11.4562Y-2.8562
X11.4562Y-3.75
X11.5625Y-5.2375
X11.5812Y-4.3563
X11.5875Y-4.725
X11.6125Y-4.4813
X11.6437Y-2.975
X11.6875Y-1.4375
X11.6875Y-2.5187
X11.7125Y-2.2937
X11.775Y-0.6
X11.7875Y-1.7188
X11.8Y-0.9812
X11.8Y-1.1062
X11.8Y-2.1437
X11.8375Y-3.9688
X11.8375Y-4.475
X11.9313Y-3.225
X11.9812Y-2.25
X11.9875Y-3.6437
X12.0125Y-1.1062
X12.0125Y-4.7125
X12.0312Y-0.6062
X12.0437Y-2.1687
X12.075Y-3.6562
X12.075Y-5.1375
X12.0812Y-1.7188
X12.1125Y-2.4688
X12.1375Y-3.95
X12.1687Y-2.6
X12.1687Y-2.9812
X12.1937Y-3.2
X12.2062Y-3.7625
X12.2312Y-2.8562
X12.2812Y-5.1625
X12.3312Y-4.4625
X12.3875Y-2.9875
X12.4381Y-1.4625
X12.4938Y-3.2125
X12.4938Y-5.2313
X12.5Y-4.7125
X12.5187Y-0.6188
X12.5437Y-1.1
X12.5437Y-1.7125
X12.55Y-0.9812
X12.55Y-2.1375
X12.55Y-4.3563
X12.5875Y-0.5
X12.6813Y-3.9438
X12.725Y-3.25
X12.7375Y-2.2625
X12.75Y-3.6313
X12.7875Y-1.7125
X12.7937Y-2.1687
X12.8125Y-4.2562
X12.825Y-2.4688
X12.9062Y-2.6687
X12.925Y-2.9937
X12.9625Y-4.7188
X12.9688Y-2.85
X12.9688Y-4.025
X12.9938Y-3.65
X13.025Y-4.4937
X13.025Y-5.1375
X13.1875Y-1.4625
X13.2438Y-3.7687
X13.2438Y-5.1625
X13.2937Y-0.8812
X13.2937Y-1.7188
X13.3063Y-2.9812
X13.3187Y-2.1313
X13.425Y-4.725
X13.4313Y-5.2313
X13.5Y-1.1062
X13.525Y-2.275
X13.5312Y-0.6
X13.5312Y-3.225
X13.5437Y-2.1687
X13.5563Y-1.7188
X13.5687Y-3.9562
X13.6375Y-4.4562
X13.7625Y-3.2563
X13.7875Y-2.4688
X13.7937Y-3.6062
X13.8312Y-3.1
X13.8688Y-2.5938
X13.875Y-2.8562
X13.8875Y-4.0187
X13.8937Y-3.3875
X13.9187Y-4.7313
X13.9375Y-0.6
X13.9375Y-1.4937
X13.9812Y-5.0938
X14.0062Y-3.7375
X14.0187Y-5.2375
X14.025Y-1.0875
X14.0312Y-4.9937
X14.0406Y-2.1094
X14.05Y-1.7125
X14.0563Y-0.5812
X14.075Y-4.7125
X14.0938Y-2.0562
X14.1062Y-2.9187
X14.1188Y-2.2188
T2
X0.7Y-1.55
X2.5187Y-3.1125
T3
X2.375Y-3.2188
X5.2562Y-1.175
X5.9956Y-0.8325
X6.0Y-1.325
X6.0754Y-1.175
X6.0999Y-0.9195
X6.1246Y-1.175
X6.2048Y-0.8341
T5
X0.5875Y-3.4375
X0.5875Y-3.5375
X0.5875Y-3.6375
X0.5875Y-3.7375
X0.5875Y-3.8375
X0.5875Y-3.9375
X0.5875Y-4.0375
X0.5875Y-4.1375
X0.6Y-1.2937
X0.6Y-1.3938
X0.6Y-1.4937
X0.6Y-1.5938
X1.0875Y-4.225
X1.0875Y-4.325
X1.0875Y-4.425
X1.0875Y-4.525
X1.0875Y-4.625
X1.1875Y-4.225
X1.1875Y-4.325
X1.1875Y-4.425
X1.1875Y-4.525
X1.1875Y-4.625
X2.8188Y-0.5746
X2.8188Y-0.6746
X2.8188Y-0.7746
X2.8188Y-0.8746
T6
X0.75Y-0.65
X0.75Y-1.775
X0.75Y-2.525
X0.75Y-4.775
X0.7516Y-0.6728
X0.7516Y-1.7978
X0.7516Y-2.5478
X0.7516Y-4.7978
X0.9484Y-0.6925
X0.9484Y-1.8175
X0.9484Y-2.5675
X0.9484Y-4.8175
X1.0Y-0.75
X1.0Y-1.875
X1.0Y-2.625
X1.0Y-4.875
X1.5Y-0.65
X1.5Y-1.775
X1.5Y-2.525
X1.5Y-4.025
X1.5Y-4.775
X1.5016Y-0.6728
X1.5016Y-1.7978
X1.5016Y-2.5478
X1.5016Y-4.0478
X1.5016Y-4.7978
X1.6984Y-0.6925
X1.6984Y-1.8175
X1.6984Y-2.5675
X1.6984Y-4.0675
X1.6984Y-4.8175
X1.75Y-0.75
X1.75Y-1.875
X1.75Y-2.625
X1.75Y-4.125
X1.75Y-4.875
X2.25Y-0.65
X2.25Y-1.775
X2.25Y-2.525
X2.25Y-4.775
X2.2516Y-0.6728
X2.2516Y-1.7978
X2.2516Y-2.5478
X2.2516Y-4.7978
X2.4484Y-0.6925
X2.4484Y-1.8175
X2.4484Y-2.5675
X2.4484Y-4.8175
X2.5Y-0.75
X2.5Y-1.875
X2.5Y-2.625
X2.5Y-4.875
X3.1875Y-0.65
X3.1891Y-0.6728
X3.2812Y-4.775
X3.2828Y-4.7978
X3.375Y-2.525
X3.3766Y-2.5478
X3.3859Y-0.6925
X3.4375Y-0.75
X3.4797Y-4.8175
X3.5312Y-4.875
X3.5625Y-1.775
X3.5641Y-1.7978
X3.5734Y-2.5675
X3.625Y-2.625
X3.6562Y-3.2747
X3.6578Y-3.2976
X3.7609Y-1.8175
X3.8125Y-1.875
X3.8438Y-4.025
X3.8453Y-4.0478
X3.8547Y-3.3172
X3.9062Y-3.3747
X3.9375Y-0.65
X3.9391Y-0.6728
X4.0422Y-4.0675
X4.0938Y-4.125
X4.1359Y-0.6925
X4.1875Y-0.75
X4.2188Y-4.775
X4.2203Y-4.7978
X4.3125Y-2.525
X4.3141Y-2.5478
X4.4172Y-4.8175
X4.4688Y-4.875
X4.5109Y-2.5675
X4.5625Y-2.625
X4.6875Y-0.65
X4.6875Y-1.775
X4.6891Y-0.6728
X4.6891Y-1.7978
X4.875Y-3.275
X4.8766Y-3.2978
X4.8859Y-0.6925
X4.8859Y-1.8175
X4.9375Y-0.75
X4.9375Y-1.875
X5.0625Y-2.525
X5.0641Y-2.5478
X5.0734Y-3.3175
X5.125Y-3.375
X5.1562Y-4.775
X5.1578Y-4.7978
X5.25Y-4.025
X5.2516Y-4.0478
X5.2609Y-2.5675
X5.3125Y-2.625
X5.3547Y-4.8175
X5.4062Y-4.875
X5.4375Y-0.65
X5.4375Y-1.775
X5.4391Y-0.6728
X5.4391Y-1.7978
X5.4484Y-4.0675
X5.5Y-4.125
X5.625Y-3.275
X5.6266Y-3.2978
X5.6359Y-0.6925
X5.6359Y-1.8175
X5.6875Y-0.75
X5.6875Y-1.875
X5.8125Y-2.525
X5.8141Y-2.5478
X5.8234Y-3.3175
X5.875Y-3.375
X6.0Y-4.025
X6.0016Y-4.0478
X6.0109Y-2.5675
X6.0625Y-2.625
X6.0938Y-4.775
X6.0953Y-4.7978
X6.1875Y-1.775
X6.1891Y-1.7978
X6.1984Y-4.0675
X6.25Y-4.125
X6.2922Y-4.8175
X6.3438Y-4.875
X6.375Y-3.275
X6.3766Y-3.2978
X6.3859Y-1.8175
X6.4375Y-1.875
X6.5625Y-0.65
X6.5625Y-2.525
X6.5641Y-0.6728
X6.5641Y-2.5478
X6.5734Y-3.3175
X6.625Y-3.375
X6.75Y-4.025
X6.7516Y-4.0478
X6.7609Y-0.6925
X6.7609Y-2.5675
X6.8125Y-0.75
X6.8125Y-2.625
X6.9375Y-1.775
X6.9391Y-1.7978
X6.9484Y-4.0675
X7.0Y-4.125
X7.125Y-3.275
X7.1266Y-3.2978
X7.1359Y-1.8175
X7.1875Y-1.875
X7.3125Y-0.65
X7.3125Y-2.525
X7.3141Y-0.6728
X7.3141Y-2.5478
X7.3234Y-3.3175
X7.375Y-3.375
X7.5Y-4.025
X7.5016Y-4.0478
X7.5109Y-0.6925
X7.5109Y-2.5675
X7.5625Y-0.75
X7.5625Y-2.625
X7.6875Y-1.775
X7.6891Y-1.7978
X7.6984Y-4.0675
X7.75Y-4.125
X7.875Y-3.275
X7.8766Y-3.2978
X7.8859Y-1.8175
X7.9375Y-1.875
X8.0625Y-0.65
X8.0625Y-2.525
X8.0641Y-0.6728
X8.0641Y-2.5478
X8.0734Y-3.3175
X8.125Y-3.375
X8.25Y-4.025
X8.2516Y-4.0478
X8.2609Y-0.6925
X8.2609Y-2.5675
X8.3125Y-0.75
X8.3125Y-2.625
X8.4375Y-1.775
X8.4391Y-1.7978
X8.4484Y-4.0675
X8.5Y-4.125
X8.625Y-3.275
X8.6266Y-3.2978
X8.6359Y-1.8175
X8.6875Y-1.875
X8.8125Y-0.65
X8.8125Y-2.525
X8.8141Y-0.6728
X8.8141Y-2.5478
X8.8234Y-3.3175
X8.875Y-3.375
X8.9062Y-4.7747
X8.9078Y-4.7976
X9.0Y-4.025
X9.0016Y-4.0478
X9.0109Y-0.6925
X9.0109Y-2.5675
X9.0625Y-0.75
X9.0625Y-2.625
X9.1047Y-4.8172
X9.1562Y-4.8747
X9.1875Y-1.775
X9.1891Y-1.7978
X9.1984Y-4.0675
X9.25Y-4.125
X9.375Y-3.275
X9.3766Y-3.2978
X9.3859Y-1.8175
X9.4375Y-1.875
X9.5625Y-2.525
X9.5641Y-2.5478
X9.5734Y-3.3175
X9.625Y-3.375
X9.75Y-4.025
X9.7516Y-4.0478
X9.7609Y-2.5675
X9.8125Y-2.625
X9.9375Y-0.65
X9.9375Y-1.775
X9.9391Y-0.6728
X9.9391Y-1.7978
X9.9484Y-4.0675
X10.0Y-4.125
X10.125Y-3.275
X10.1266Y-3.2978
X10.1359Y-0.6925
X10.1359Y-1.8175
X10.1875Y-0.75
X10.1875Y-1.875
X10.3125Y-2.525
X10.3141Y-2.5478
X10.3234Y-3.3175
X10.375Y-3.375
X10.5Y-4.025
X10.5016Y-4.0478
X10.5109Y-2.5675
X10.5625Y-2.625
X10.6875Y-0.65
X10.6875Y-1.775
X10.6891Y-0.6728
X10.6891Y-1.7978
X10.6984Y-4.0675
X10.75Y-4.125
X10.875Y-3.275
X10.8766Y-3.2978
X10.8859Y-0.6925
X10.8859Y-1.8175
X10.9375Y-0.75
X10.9375Y-1.875
X11.0625Y-2.525
X11.0641Y-2.5478
X11.0734Y-3.3175
X11.125Y-3.375
X11.25Y-4.025
X11.2516Y-4.0478
X11.2609Y-2.5675
X11.3125Y-2.625
X11.4375Y-0.65
X11.4375Y-1.775
X11.4391Y-0.6728
X11.4391Y-1.7978
X11.4484Y-4.0675
X11.5Y-4.125
X11.625Y-3.275
X11.6266Y-3.2978
X11.6359Y-0.6925
X11.6359Y-1.8175
X11.6875Y-0.75
X11.6875Y-1.875
X11.7188Y-4.775
X11.7203Y-4.7978
X11.8125Y-2.525
X11.8141Y-2.5478
X11.8234Y-3.3175
X11.875Y-3.375
X11.9172Y-4.8175
X11.9688Y-4.875
X12.0Y-4.025
X12.0016Y-4.0478
X12.0109Y-2.5675
X12.0625Y-2.625
X12.1875Y-0.65
X12.1875Y-1.775
X12.1891Y-0.6728
X12.1891Y-1.7978
X12.1984Y-4.0675
X12.25Y-4.125
X12.375Y-3.275
X12.3766Y-3.2978
X12.3859Y-0.6925
X12.3859Y-1.8175
X12.4375Y-0.75
X12.4375Y-1.875
X12.5625Y-2.525
X12.5641Y-2.5478
X12.5734Y-3.3175
X12.625Y-3.375
X12.6562Y-4.775
X12.6578Y-4.7978
X12.7609Y-2.5675
X12.8125Y-2.625
X12.8547Y-4.8175
X12.9062Y-4.875
X12.9375Y-1.775
X12.9391Y-1.7978
X13.1359Y-1.8175
X13.1875Y-1.875
X13.2188Y-4.025
X13.2203Y-4.0478
X13.4062Y-3.275
X13.4078Y-3.2978
X13.4172Y-4.0675
X13.4688Y-4.125
X13.5Y-2.525
X13.5016Y-2.5478
X13.5938Y-4.775
X13.5953Y-4.7978
X13.6047Y-3.3175
X13.6562Y-3.375
X13.6875Y-0.65
X13.6875Y-1.775
X13.6891Y-0.6728
X13.6891Y-1.7978
X13.6984Y-2.5675
X13.75Y-2.625
X13.7922Y-4.8175
X13.8438Y-4.875
X13.8859Y-0.6925
X13.8859Y-1.8175
X13.9375Y-0.75
X13.9375Y-1.875
T7
X13.1704Y-2.6984
T4
G00X5.9299Y-0.5607
M15
G01X5.9299Y-0.5922
M16
G05
G00X5.9299Y-0.7193
M15
G01X5.9299Y-0.7626
M16
G05
G00X6.2701Y-0.5607
M15
G01X6.2701Y-0.5922
M16
G05
G00X6.2701Y-0.7193
M15
G01X6.2701Y-0.7626
M16
G05
T7
G00X0.7585Y-4.2063
M15
G01X0.8215Y-4.2063
M16
G05
G00X2.7873Y-1.1463
M15
G01X2.8502Y-1.1463
M16
G05
G00X3.8633Y-2.6984
M15
G01X3.9263Y-2.6984
M16
G05
G00X6.631Y-4.9543
M15
G01X6.694Y-4.9543
M16
G05
G00X7.006Y-1.3431
M15
G01X7.069Y-1.3431
M16
G05
G00X9.0685Y-3.4504
M15
G01X9.1315Y-3.4504
M16
G05
G00X9.4435Y-1.1463
M15
G01X9.5065Y-1.1463
M16
G05
G00X11.3185Y-4.9543
M15
G01X11.3815Y-4.9543
M16
G05
G00X13.006Y-1.1463
M15
G01X13.069Y-1.1463
M16
G05
T0
M30
