%TF.GenerationSoftware,KiCad,Pcbnew,(7.0.0)*%
%TF.CreationDate,2023-06-19T20:50:28+08:00*%
%TF.ProjectId,87keyboard,38376b65-7962-46f6-9172-642e6b696361,rev?*%
%TF.SameCoordinates,Original*%
%TF.FileFunction,Paste,Top*%
%TF.FilePolarity,Positive*%
%FSLAX46Y46*%
G04 Gerber Fmt 4.6, Leading zero omitted, Abs format (unit mm)*
G04 Created by KiCad (PCBNEW (7.0.0)) date 2023-06-19 20:50:28*
%MOMM*%
%LPD*%
G01*
G04 APERTURE LIST*
G04 Aperture macros list*
%AMRoundRect*
0 Rectangle with rounded corners*
0 $1 Rounding radius*
0 $2 $3 $4 $5 $6 $7 $8 $9 X,Y pos of 4 corners*
0 Add a 4 corners polygon primitive as box body*
4,1,4,$2,$3,$4,$5,$6,$7,$8,$9,$2,$3,0*
0 Add four circle primitives for the rounded corners*
1,1,$1+$1,$2,$3*
1,1,$1+$1,$4,$5*
1,1,$1+$1,$6,$7*
1,1,$1+$1,$8,$9*
0 Add four rect primitives between the rounded corners*
20,1,$1+$1,$2,$3,$4,$5,0*
20,1,$1+$1,$4,$5,$6,$7,0*
20,1,$1+$1,$6,$7,$8,$9,0*
20,1,$1+$1,$8,$9,$2,$3,0*%
%AMFreePoly0*
4,1,47,0.715063,0.420106,0.730902,0.420106,0.743715,0.410796,0.758779,0.405902,0.768088,0.393088,0.780902,0.383779,0.785796,0.368715,0.795106,0.355902,0.795106,0.340063,0.800000,0.325000,0.800000,-0.325000,0.795106,-0.340063,0.795106,-0.355902,0.785796,-0.368715,0.780902,-0.383779,0.768088,-0.393088,0.758779,-0.405902,0.743715,-0.410796,0.730902,-0.420106,0.715063,-0.420106,
0.700000,-0.425000,-0.300000,-0.425000,-0.310000,-0.425000,-0.338831,-0.415632,-0.367787,-0.406613,-0.368169,-0.406100,-0.368779,-0.405902,-0.386612,-0.381355,-0.404722,-0.357060,-0.512619,-0.038273,-0.669717,0.280832,-0.670770,0.288130,-0.675106,0.294098,-0.675106,0.318173,-0.678545,0.342002,-0.675106,0.348528,-0.675106,0.355902,-0.660955,0.375379,-0.649731,0.396677,-0.643114,0.399934,
-0.638779,0.405902,-0.615879,0.413342,-0.594282,0.423975,-0.587013,0.422721,-0.580000,0.425000,0.700000,0.425000,0.715063,0.420106,0.715063,0.420106,$1*%
%AMFreePoly1*
4,1,47,0.715063,0.420106,0.730902,0.420106,0.743715,0.410796,0.758779,0.405902,0.768088,0.393088,0.780902,0.383779,0.785796,0.368715,0.795106,0.355902,0.795106,0.340063,0.800000,0.325000,0.800000,-0.325000,0.795106,-0.340063,0.795106,-0.355902,0.785796,-0.368715,0.780902,-0.383779,0.768088,-0.393088,0.758779,-0.405902,0.743715,-0.410796,0.730902,-0.420106,0.715063,-0.420106,
0.700000,-0.425000,-0.300000,-0.425000,-0.580000,-0.425000,-0.587013,-0.422721,-0.594282,-0.423975,-0.615879,-0.413342,-0.638779,-0.405902,-0.643114,-0.399934,-0.649731,-0.396677,-0.660955,-0.375379,-0.675106,-0.355902,-0.675106,-0.348528,-0.678545,-0.342002,-0.675106,-0.318173,-0.675106,-0.294098,-0.670770,-0.288130,-0.669717,-0.280832,-0.512619,0.038273,-0.404722,0.357060,-0.386612,0.381355,
-0.368779,0.405902,-0.368169,0.406100,-0.367787,0.406613,-0.338831,0.415632,-0.310000,0.425000,0.700000,0.425000,0.715063,0.420106,0.715063,0.420106,$1*%
%AMFreePoly2*
4,1,47,0.338831,0.415632,0.367787,0.406613,0.368169,0.406100,0.368779,0.405902,0.386612,0.381355,0.404722,0.357060,0.512618,0.038275,0.669717,-0.280832,0.670770,-0.288130,0.675106,-0.294098,0.675106,-0.318173,0.678545,-0.342002,0.675106,-0.348528,0.675106,-0.355902,0.660955,-0.375379,0.649731,-0.396677,0.643114,-0.399934,0.638779,-0.405902,0.615879,-0.413342,0.594282,-0.423975,
0.587013,-0.422721,0.580000,-0.425000,-0.300000,-0.425000,-0.700000,-0.425000,-0.715063,-0.420106,-0.730902,-0.420106,-0.743715,-0.410796,-0.758779,-0.405902,-0.768088,-0.393088,-0.780902,-0.383779,-0.785796,-0.368715,-0.795106,-0.355902,-0.795106,-0.340063,-0.800000,-0.325000,-0.800000,0.325000,-0.795106,0.340063,-0.795106,0.355902,-0.785796,0.368715,-0.780902,0.383779,-0.768088,0.393088,
-0.758779,0.405902,-0.743715,0.410796,-0.730902,0.420106,-0.715063,0.420106,-0.700000,0.425000,0.310000,0.425000,0.338831,0.415632,0.338831,0.415632,$1*%
%AMFreePoly3*
4,1,47,0.587013,0.422721,0.594282,0.423975,0.615879,0.413342,0.638779,0.405902,0.643114,0.399934,0.649731,0.396677,0.660955,0.375379,0.675106,0.355902,0.675106,0.348528,0.678545,0.342002,0.675106,0.318173,0.675106,0.294098,0.670770,0.288130,0.669717,0.280832,0.512618,-0.038275,0.404722,-0.357060,0.386612,-0.381355,0.368779,-0.405902,0.368169,-0.406100,0.367787,-0.406613,
0.338831,-0.415632,0.310000,-0.425000,-0.300000,-0.425000,-0.700000,-0.425000,-0.715063,-0.420106,-0.730902,-0.420106,-0.743715,-0.410796,-0.758779,-0.405902,-0.768088,-0.393088,-0.780902,-0.383779,-0.785796,-0.368715,-0.795106,-0.355902,-0.795106,-0.340063,-0.800000,-0.325000,-0.800000,0.325000,-0.795106,0.340063,-0.795106,0.355902,-0.785796,0.368715,-0.780902,0.383779,-0.768088,0.393088,
-0.758779,0.405902,-0.743715,0.410796,-0.730902,0.420106,-0.715063,0.420106,-0.700000,0.425000,0.580000,0.425000,0.587013,0.422721,0.587013,0.422721,$1*%
G04 Aperture macros list end*
%ADD10FreePoly0,180.000000*%
%ADD11FreePoly1,180.000000*%
%ADD12FreePoly2,180.000000*%
%ADD13FreePoly3,180.000000*%
%ADD14FreePoly0,0.000000*%
%ADD15FreePoly1,0.000000*%
%ADD16FreePoly2,0.000000*%
%ADD17FreePoly3,0.000000*%
%ADD18RoundRect,0.100000X-0.637500X-0.100000X0.637500X-0.100000X0.637500X0.100000X-0.637500X0.100000X0*%
%ADD19RoundRect,0.140000X0.170000X-0.140000X0.170000X0.140000X-0.170000X0.140000X-0.170000X-0.140000X0*%
%ADD20RoundRect,0.140000X-0.170000X0.140000X-0.170000X-0.140000X0.170000X-0.140000X0.170000X0.140000X0*%
%ADD21RoundRect,0.225000X0.375000X-0.225000X0.375000X0.225000X-0.375000X0.225000X-0.375000X-0.225000X0*%
%ADD22RoundRect,0.225000X-0.225000X-0.250000X0.225000X-0.250000X0.225000X0.250000X-0.225000X0.250000X0*%
%ADD23RoundRect,0.218750X-0.256250X0.218750X-0.256250X-0.218750X0.256250X-0.218750X0.256250X0.218750X0*%
%ADD24RoundRect,0.140000X0.140000X0.170000X-0.140000X0.170000X-0.140000X-0.170000X0.140000X-0.170000X0*%
%ADD25RoundRect,0.135000X-0.185000X0.135000X-0.185000X-0.135000X0.185000X-0.135000X0.185000X0.135000X0*%
%ADD26RoundRect,0.075000X-0.700000X-0.075000X0.700000X-0.075000X0.700000X0.075000X-0.700000X0.075000X0*%
%ADD27RoundRect,0.075000X-0.075000X-0.700000X0.075000X-0.700000X0.075000X0.700000X-0.075000X0.700000X0*%
%ADD28RoundRect,0.150000X-0.150000X0.512500X-0.150000X-0.512500X0.150000X-0.512500X0.150000X0.512500X0*%
%ADD29RoundRect,0.218750X0.218750X0.256250X-0.218750X0.256250X-0.218750X-0.256250X0.218750X-0.256250X0*%
%ADD30RoundRect,0.135000X-0.135000X-0.185000X0.135000X-0.185000X0.135000X0.185000X-0.135000X0.185000X0*%
%ADD31RoundRect,0.150000X-0.587500X-0.150000X0.587500X-0.150000X0.587500X0.150000X-0.587500X0.150000X0*%
%ADD32RoundRect,0.135000X0.135000X0.185000X-0.135000X0.185000X-0.135000X-0.185000X0.135000X-0.185000X0*%
%ADD33RoundRect,0.140000X-0.140000X-0.170000X0.140000X-0.170000X0.140000X0.170000X-0.140000X0.170000X0*%
%ADD34RoundRect,0.250000X0.475000X-0.250000X0.475000X0.250000X-0.475000X0.250000X-0.475000X-0.250000X0*%
%ADD35RoundRect,0.135000X0.185000X-0.135000X0.185000X0.135000X-0.185000X0.135000X-0.185000X-0.135000X0*%
%ADD36RoundRect,0.225000X0.250000X-0.225000X0.250000X0.225000X-0.250000X0.225000X-0.250000X-0.225000X0*%
%ADD37R,1.000000X1.150000*%
G04 APERTURE END LIST*
D10*
%TO.C,D107*%
X280895900Y-75170000D03*
D11*
X280895900Y-73416400D03*
D12*
X286133700Y-73420000D03*
D13*
X286133700Y-75173600D03*
%TD*%
D10*
%TO.C,D169*%
X38008400Y-75170000D03*
D11*
X38008400Y-73416400D03*
D12*
X43246200Y-73420000D03*
D13*
X43246200Y-75173600D03*
%TD*%
D14*
%TO.C,D106*%
X295684100Y-54370000D03*
D15*
X295684100Y-56123600D03*
D16*
X290446300Y-56120000D03*
D17*
X290446300Y-54366400D03*
%TD*%
D10*
%TO.C,D117*%
X242795900Y-75170000D03*
D11*
X242795900Y-73416400D03*
D12*
X248033700Y-73420000D03*
D13*
X248033700Y-75173600D03*
%TD*%
D14*
%TO.C,D124*%
X224246600Y-92470000D03*
D15*
X224246600Y-94223600D03*
D16*
X219008800Y-94220000D03*
D17*
X219008800Y-92466400D03*
%TD*%
D10*
%TO.C,D159*%
X85633400Y-75170000D03*
D11*
X85633400Y-73416400D03*
D12*
X90871200Y-73420000D03*
D13*
X90871200Y-75173600D03*
%TD*%
D10*
%TO.C,D150*%
X128495900Y-75170000D03*
D11*
X128495900Y-73416400D03*
D12*
X133733700Y-73420000D03*
D13*
X133733700Y-75173600D03*
%TD*%
D14*
%TO.C,D97*%
X319496600Y-92470000D03*
D15*
X319496600Y-94223600D03*
D16*
X314258800Y-94220000D03*
D17*
X314258800Y-92466400D03*
%TD*%
D10*
%TO.C,D126*%
X204695900Y-27545000D03*
D11*
X204695900Y-25791400D03*
D12*
X209933700Y-25795000D03*
D13*
X209933700Y-27548600D03*
%TD*%
D10*
%TO.C,D96*%
X318995900Y-75170000D03*
D11*
X318995900Y-73416400D03*
D12*
X324233700Y-73420000D03*
D13*
X324233700Y-75173600D03*
%TD*%
D10*
%TO.C,D152*%
X133258400Y-113270000D03*
D11*
X133258400Y-111516400D03*
D12*
X138496200Y-111520000D03*
D13*
X138496200Y-113273600D03*
%TD*%
D10*
%TO.C,D135*%
X190408400Y-113270000D03*
D11*
X190408400Y-111516400D03*
D12*
X195646200Y-111520000D03*
D13*
X195646200Y-113273600D03*
%TD*%
D14*
%TO.C,D145*%
X148046600Y-92470000D03*
D15*
X148046600Y-94223600D03*
D16*
X142808800Y-94220000D03*
D17*
X142808800Y-92466400D03*
%TD*%
D10*
%TO.C,D133*%
X185645900Y-75170000D03*
D11*
X185645900Y-73416400D03*
D12*
X190883700Y-73420000D03*
D13*
X190883700Y-75173600D03*
%TD*%
D14*
%TO.C,D104*%
X302827850Y-130570000D03*
D15*
X302827850Y-132323600D03*
D16*
X297590050Y-132320000D03*
D17*
X297590050Y-130566400D03*
%TD*%
D14*
%TO.C,D175*%
X24221600Y-130570000D03*
D15*
X24221600Y-132323600D03*
D16*
X18983800Y-132320000D03*
D17*
X18983800Y-130566400D03*
%TD*%
D14*
%TO.C,D151*%
X128996600Y-92470000D03*
D15*
X128996600Y-94223600D03*
D16*
X123758800Y-94220000D03*
D17*
X123758800Y-92466400D03*
%TD*%
D10*
%TO.C,D170*%
X38008400Y-113270000D03*
D11*
X38008400Y-111516400D03*
D12*
X43246200Y-111520000D03*
D13*
X43246200Y-113273600D03*
%TD*%
D14*
%TO.C,D116*%
X257584100Y-54370000D03*
D15*
X257584100Y-56123600D03*
D16*
X252346300Y-56120000D03*
D17*
X252346300Y-54366400D03*
%TD*%
D14*
%TO.C,D166*%
X62321600Y-130570000D03*
D15*
X62321600Y-132323600D03*
D16*
X57083800Y-132320000D03*
D17*
X57083800Y-130566400D03*
%TD*%
D10*
%TO.C,D154*%
X99920900Y-27545000D03*
D11*
X99920900Y-25791400D03*
D12*
X105158700Y-25795000D03*
D13*
X105158700Y-27548600D03*
%TD*%
D14*
%TO.C,D113*%
X262346600Y-92470000D03*
D15*
X262346600Y-94223600D03*
D16*
X257108800Y-94220000D03*
D17*
X257108800Y-92466400D03*
%TD*%
D10*
%TO.C,D130*%
X209458400Y-113270000D03*
D11*
X209458400Y-111516400D03*
D12*
X214696200Y-111520000D03*
D13*
X214696200Y-113273600D03*
%TD*%
D14*
%TO.C,D139*%
X167096600Y-92470000D03*
D15*
X167096600Y-94223600D03*
D16*
X161858800Y-94220000D03*
D17*
X161858800Y-92466400D03*
%TD*%
D10*
%TO.C,D109*%
X285658400Y-113270000D03*
D11*
X285658400Y-111516400D03*
D12*
X290896200Y-111520000D03*
D13*
X290896200Y-113273600D03*
%TD*%
D10*
%TO.C,D138*%
X166595900Y-75170000D03*
D11*
X166595900Y-73416400D03*
D12*
X171833700Y-73420000D03*
D13*
X171833700Y-75173600D03*
%TD*%
D10*
%TO.C,D142*%
X138020900Y-27545000D03*
D11*
X138020900Y-25791400D03*
D12*
X143258700Y-25795000D03*
D13*
X143258700Y-27548600D03*
%TD*%
D14*
%TO.C,D100*%
X314734100Y-54370000D03*
D15*
X314734100Y-56123600D03*
D16*
X309496300Y-56120000D03*
D17*
X309496300Y-54366400D03*
%TD*%
D10*
%TO.C,D140*%
X171358400Y-113270000D03*
D11*
X171358400Y-111516400D03*
D12*
X176596200Y-111520000D03*
D13*
X176596200Y-113273600D03*
%TD*%
D14*
%TO.C,D94*%
X350452850Y-130570000D03*
D15*
X350452850Y-132323600D03*
D16*
X345215050Y-132320000D03*
D17*
X345215050Y-130566400D03*
%TD*%
D10*
%TO.C,D123*%
X223745900Y-75170000D03*
D11*
X223745900Y-73416400D03*
D12*
X228983700Y-73420000D03*
D13*
X228983700Y-75173600D03*
%TD*%
D14*
%TO.C,D127*%
X219484100Y-54370000D03*
D15*
X219484100Y-56123600D03*
D16*
X214246300Y-56120000D03*
D17*
X214246300Y-54366400D03*
%TD*%
D14*
%TO.C,D98*%
X326640350Y-130570000D03*
D15*
X326640350Y-132323600D03*
D16*
X321402550Y-132320000D03*
D17*
X321402550Y-130566400D03*
%TD*%
D14*
%TO.C,D137*%
X181384100Y-54370000D03*
D15*
X181384100Y-56123600D03*
D16*
X176146300Y-56120000D03*
D17*
X176146300Y-54366400D03*
%TD*%
D14*
%TO.C,D92*%
X345690350Y-92470000D03*
D15*
X345690350Y-94223600D03*
D16*
X340452550Y-94220000D03*
D17*
X340452550Y-92466400D03*
%TD*%
D10*
%TO.C,D89*%
X347570900Y-27545000D03*
D11*
X347570900Y-25791400D03*
D12*
X352808700Y-25795000D03*
D13*
X352808700Y-27548600D03*
%TD*%
D10*
%TO.C,D148*%
X118970900Y-27545000D03*
D11*
X118970900Y-25791400D03*
D12*
X124208700Y-25795000D03*
D13*
X124208700Y-27548600D03*
%TD*%
D14*
%TO.C,D120*%
X231390350Y-130570000D03*
D15*
X231390350Y-132323600D03*
D16*
X226152550Y-132320000D03*
D17*
X226152550Y-130566400D03*
%TD*%
D10*
%TO.C,D128*%
X204695900Y-75170000D03*
D11*
X204695900Y-73416400D03*
D12*
X209933700Y-73420000D03*
D13*
X209933700Y-75173600D03*
%TD*%
D14*
%TO.C,D108*%
X281396600Y-92470000D03*
D15*
X281396600Y-94223600D03*
D16*
X276158800Y-94220000D03*
D17*
X276158800Y-92466400D03*
%TD*%
D14*
%TO.C,D160*%
X98040350Y-92470000D03*
D15*
X98040350Y-94223600D03*
D16*
X92802550Y-94220000D03*
D17*
X92802550Y-92466400D03*
%TD*%
D14*
%TO.C,D147*%
X136140350Y-130570000D03*
D15*
X136140350Y-132323600D03*
D16*
X130902550Y-132320000D03*
D17*
X130902550Y-130566400D03*
%TD*%
D10*
%TO.C,D93*%
X335664650Y-113270000D03*
D11*
X335664650Y-111516400D03*
D12*
X340902450Y-111520000D03*
D13*
X340902450Y-113273600D03*
%TD*%
D10*
%TO.C,D167*%
X38008400Y-27545000D03*
D11*
X38008400Y-25791400D03*
D12*
X43246200Y-25795000D03*
D13*
X43246200Y-27548600D03*
%TD*%
D14*
%TO.C,D111*%
X276634100Y-54370000D03*
D15*
X276634100Y-56123600D03*
D16*
X271396300Y-56120000D03*
D17*
X271396300Y-54366400D03*
%TD*%
D14*
%TO.C,D134*%
X186146600Y-92470000D03*
D15*
X186146600Y-94223600D03*
D16*
X180908800Y-94220000D03*
D17*
X180908800Y-92466400D03*
%TD*%
D10*
%TO.C,D144*%
X147545900Y-75170000D03*
D11*
X147545900Y-73416400D03*
D12*
X152783700Y-73420000D03*
D13*
X152783700Y-75173600D03*
%TD*%
D14*
%TO.C,D168*%
X43271600Y-54370000D03*
D15*
X43271600Y-56123600D03*
D16*
X38033800Y-56120000D03*
D17*
X38033800Y-54366400D03*
%TD*%
D10*
%TO.C,D161*%
X97539650Y-113270000D03*
D11*
X97539650Y-111516400D03*
D12*
X102777450Y-111520000D03*
D13*
X102777450Y-113273600D03*
%TD*%
D14*
%TO.C,D149*%
X143284100Y-54370000D03*
D15*
X143284100Y-56123600D03*
D16*
X138046300Y-56120000D03*
D17*
X138046300Y-54366400D03*
%TD*%
D14*
%TO.C,D102*%
X300446600Y-92470000D03*
D15*
X300446600Y-94223600D03*
D16*
X295208800Y-94220000D03*
D17*
X295208800Y-92466400D03*
%TD*%
D10*
%TO.C,D146*%
X152308400Y-113270000D03*
D11*
X152308400Y-111516400D03*
D12*
X157546200Y-111520000D03*
D13*
X157546200Y-113273600D03*
%TD*%
D14*
%TO.C,D162*%
X88515350Y-130570000D03*
D15*
X88515350Y-132323600D03*
D16*
X83277550Y-132320000D03*
D17*
X83277550Y-130566400D03*
%TD*%
D14*
%TO.C,D122*%
X238534100Y-54370000D03*
D15*
X238534100Y-56123600D03*
D16*
X233296300Y-56120000D03*
D17*
X233296300Y-54366400D03*
%TD*%
D10*
%TO.C,D174*%
X18958400Y-75170000D03*
D11*
X18958400Y-73416400D03*
D12*
X24196200Y-73420000D03*
D13*
X24196200Y-75173600D03*
%TD*%
D10*
%TO.C,D119*%
X247558400Y-113270000D03*
D11*
X247558400Y-111516400D03*
D12*
X252796200Y-111520000D03*
D13*
X252796200Y-113273600D03*
%TD*%
D10*
%TO.C,D156*%
X109445900Y-75170000D03*
D11*
X109445900Y-73416400D03*
D12*
X114683700Y-73420000D03*
D13*
X114683700Y-75173600D03*
%TD*%
D10*
%TO.C,D121*%
X223745900Y-27545000D03*
D11*
X223745900Y-25791400D03*
D12*
X228983700Y-25795000D03*
D13*
X228983700Y-27548600D03*
%TD*%
D10*
%TO.C,D165*%
X57058400Y-75170000D03*
D11*
X57058400Y-73416400D03*
D12*
X62296200Y-73420000D03*
D13*
X62296200Y-75173600D03*
%TD*%
D14*
%TO.C,D141*%
X159952850Y-130570000D03*
D15*
X159952850Y-132323600D03*
D16*
X154715050Y-132320000D03*
D17*
X154715050Y-130566400D03*
%TD*%
D10*
%TO.C,D136*%
X166595900Y-27545000D03*
D11*
X166595900Y-25791400D03*
D12*
X171833700Y-25795000D03*
D13*
X171833700Y-27548600D03*
%TD*%
D10*
%TO.C,D110*%
X271370900Y-27545000D03*
D11*
X271370900Y-25791400D03*
D12*
X276608700Y-25795000D03*
D13*
X276608700Y-27548600D03*
%TD*%
D14*
%TO.C,D164*%
X62321600Y-54370000D03*
D15*
X62321600Y-56123600D03*
D16*
X57083800Y-56120000D03*
D17*
X57083800Y-54366400D03*
%TD*%
D14*
%TO.C,D143*%
X162334100Y-54370000D03*
D15*
X162334100Y-56123600D03*
D16*
X157096300Y-56120000D03*
D17*
X157096300Y-54366400D03*
%TD*%
D10*
%TO.C,D112*%
X261845900Y-75170000D03*
D11*
X261845900Y-73416400D03*
D12*
X267083700Y-73420000D03*
D13*
X267083700Y-75173600D03*
%TD*%
D10*
%TO.C,D101*%
X299945900Y-75170000D03*
D11*
X299945900Y-73416400D03*
D12*
X305183700Y-73420000D03*
D13*
X305183700Y-75173600D03*
%TD*%
D14*
%TO.C,D155*%
X124234100Y-54370000D03*
D15*
X124234100Y-56123600D03*
D16*
X118996300Y-56120000D03*
D17*
X118996300Y-54366400D03*
%TD*%
D14*
%TO.C,D173*%
X24221600Y-54370000D03*
D15*
X24221600Y-56123600D03*
D16*
X18983800Y-56120000D03*
D17*
X18983800Y-54366400D03*
%TD*%
D10*
%TO.C,D99*%
X309470900Y-27545000D03*
D11*
X309470900Y-25791400D03*
D12*
X314708700Y-25795000D03*
D13*
X314708700Y-27548600D03*
%TD*%
D10*
%TO.C,D103*%
X304708400Y-113270000D03*
D11*
X304708400Y-111516400D03*
D12*
X309946200Y-111520000D03*
D13*
X309946200Y-113273600D03*
%TD*%
D10*
%TO.C,D91*%
X342808400Y-75170000D03*
D11*
X342808400Y-73416400D03*
D12*
X348046200Y-73420000D03*
D13*
X348046200Y-75173600D03*
%TD*%
D10*
%TO.C,D172*%
X18958400Y-27545000D03*
D11*
X18958400Y-25791400D03*
D12*
X24196200Y-25795000D03*
D13*
X24196200Y-27548600D03*
%TD*%
D10*
%TO.C,D115*%
X252320900Y-27545000D03*
D11*
X252320900Y-25791400D03*
D12*
X257558700Y-25795000D03*
D13*
X257558700Y-27548600D03*
%TD*%
D14*
%TO.C,D171*%
X43271600Y-130570000D03*
D15*
X43271600Y-132323600D03*
D16*
X38033800Y-132320000D03*
D17*
X38033800Y-130566400D03*
%TD*%
D14*
%TO.C,D132*%
X200434100Y-54370000D03*
D15*
X200434100Y-56123600D03*
D16*
X195196300Y-56120000D03*
D17*
X195196300Y-54366400D03*
%TD*%
D10*
%TO.C,D157*%
X80870900Y-27545000D03*
D11*
X80870900Y-25791400D03*
D12*
X86108700Y-25795000D03*
D13*
X86108700Y-27548600D03*
%TD*%
D10*
%TO.C,D131*%
X185645900Y-27545000D03*
D11*
X185645900Y-25791400D03*
D12*
X190883700Y-25795000D03*
D13*
X190883700Y-27548600D03*
%TD*%
D14*
%TO.C,D153*%
X112327850Y-130570000D03*
D15*
X112327850Y-132323600D03*
D16*
X107090050Y-132320000D03*
D17*
X107090050Y-130566400D03*
%TD*%
D14*
%TO.C,D95*%
X333784100Y-54370000D03*
D15*
X333784100Y-56123600D03*
D16*
X328546300Y-56120000D03*
D17*
X328546300Y-54366400D03*
%TD*%
D10*
%TO.C,D163*%
X57058400Y-27545000D03*
D11*
X57058400Y-25791400D03*
D12*
X62296200Y-25795000D03*
D13*
X62296200Y-27548600D03*
%TD*%
D10*
%TO.C,D125*%
X228508400Y-113270000D03*
D11*
X228508400Y-111516400D03*
D12*
X233746200Y-111520000D03*
D13*
X233746200Y-113273600D03*
%TD*%
D14*
%TO.C,D129*%
X205196600Y-92470000D03*
D15*
X205196600Y-94223600D03*
D16*
X199958800Y-94220000D03*
D17*
X199958800Y-92466400D03*
%TD*%
D10*
%TO.C,D105*%
X290420900Y-27545000D03*
D11*
X290420900Y-25791400D03*
D12*
X295658700Y-25795000D03*
D13*
X295658700Y-27548600D03*
%TD*%
D14*
%TO.C,D158*%
X95659100Y-54370000D03*
D15*
X95659100Y-56123600D03*
D16*
X90421300Y-56120000D03*
D17*
X90421300Y-54366400D03*
%TD*%
D14*
%TO.C,D118*%
X243296600Y-92470000D03*
D15*
X243296600Y-94223600D03*
D16*
X238058800Y-94220000D03*
D17*
X238058800Y-92466400D03*
%TD*%
D14*
%TO.C,D90*%
X352834100Y-54370000D03*
D15*
X352834100Y-56123600D03*
D16*
X347596300Y-56120000D03*
D17*
X347596300Y-54366400D03*
%TD*%
D10*
%TO.C,D114*%
X266608400Y-113270000D03*
D11*
X266608400Y-111516400D03*
D12*
X271846200Y-111520000D03*
D13*
X271846200Y-113273600D03*
%TD*%
D18*
%TO.C,U4*%
X24918750Y-80463750D03*
X24918750Y-81113750D03*
X24918750Y-81763750D03*
X24918750Y-82413750D03*
X30643750Y-82413750D03*
X30643750Y-81763750D03*
X30643750Y-81113750D03*
X30643750Y-80463750D03*
%TD*%
D19*
%TO.C,C47*%
X245745000Y-92872500D03*
X245745000Y-91912500D03*
%TD*%
D20*
%TO.C,C101*%
X16510000Y-27618750D03*
X16510000Y-28578750D03*
%TD*%
D19*
%TO.C,C40*%
X279082500Y-54772500D03*
X279082500Y-53812500D03*
%TD*%
D21*
%TO.C,D55*%
X132397500Y-23875000D03*
X132397500Y-20575000D03*
%TD*%
%TO.C,D8*%
X322897500Y-52450000D03*
X322897500Y-49150000D03*
%TD*%
D22*
%TO.C,C1*%
X147497500Y-31115000D03*
X149047500Y-31115000D03*
%TD*%
D20*
%TO.C,C48*%
X245110000Y-113343750D03*
X245110000Y-114303750D03*
%TD*%
D21*
%TO.C,D73*%
X78898750Y-90550000D03*
X78898750Y-87250000D03*
%TD*%
%TO.C,D16*%
X299085000Y-109600000D03*
X299085000Y-106300000D03*
%TD*%
D19*
%TO.C,C19*%
X355441250Y-54296250D03*
X355441250Y-53336250D03*
%TD*%
D21*
%TO.C,D71*%
X81756250Y-52450000D03*
X81756250Y-49150000D03*
%TD*%
%TO.C,D9*%
X313372500Y-71500000D03*
X313372500Y-68200000D03*
%TD*%
%TO.C,D40*%
X208597500Y-52450000D03*
X208597500Y-49150000D03*
%TD*%
%TO.C,D5*%
X334803750Y-90550000D03*
X334803750Y-87250000D03*
%TD*%
%TO.C,D86*%
X29845000Y-52450000D03*
X29845000Y-49150000D03*
%TD*%
D19*
%TO.C,C97*%
X45720000Y-54772500D03*
X45720000Y-53812500D03*
%TD*%
D23*
%TO.C,FB1*%
X148748750Y-22231250D03*
X148748750Y-23806250D03*
%TD*%
D20*
%TO.C,C11*%
X47942500Y-96675000D03*
X47942500Y-97635000D03*
%TD*%
D21*
%TO.C,D3*%
X341947500Y-52450000D03*
X341947500Y-49150000D03*
%TD*%
D20*
%TO.C,C94*%
X54610000Y-75243750D03*
X54610000Y-76203750D03*
%TD*%
D19*
%TO.C,C84*%
X126682500Y-54772500D03*
X126682500Y-53812500D03*
%TD*%
D21*
%TO.C,D34*%
X218122500Y-23875000D03*
X218122500Y-20575000D03*
%TD*%
D24*
%TO.C,C12*%
X41596250Y-91598750D03*
X40636250Y-91598750D03*
%TD*%
D25*
%TO.C,R5*%
X16510000Y-115853750D03*
X16510000Y-116873750D03*
%TD*%
D21*
%TO.C,D33*%
X220503750Y-128650000D03*
X220503750Y-125350000D03*
%TD*%
%TO.C,D29*%
X246697500Y-52450000D03*
X246697500Y-49150000D03*
%TD*%
D26*
%TO.C,U3*%
X45601250Y-84673750D03*
X45601250Y-85173750D03*
X45601250Y-85673750D03*
X45601250Y-86173750D03*
X45601250Y-86673750D03*
X45601250Y-87173750D03*
X45601250Y-87673750D03*
X45601250Y-88173750D03*
X45601250Y-88673750D03*
X45601250Y-89173750D03*
X45601250Y-89673750D03*
X45601250Y-90173750D03*
X45601250Y-90673750D03*
X45601250Y-91173750D03*
X45601250Y-91673750D03*
X45601250Y-92173750D03*
D27*
X47526250Y-94098750D03*
X48026250Y-94098750D03*
X48526250Y-94098750D03*
X49026250Y-94098750D03*
X49526250Y-94098750D03*
X50026250Y-94098750D03*
X50526250Y-94098750D03*
X51026250Y-94098750D03*
X51526250Y-94098750D03*
X52026250Y-94098750D03*
X52526250Y-94098750D03*
X53026250Y-94098750D03*
X53526250Y-94098750D03*
X54026250Y-94098750D03*
X54526250Y-94098750D03*
X55026250Y-94098750D03*
D26*
X56951250Y-92173750D03*
X56951250Y-91673750D03*
X56951250Y-91173750D03*
X56951250Y-90673750D03*
X56951250Y-90173750D03*
X56951250Y-89673750D03*
X56951250Y-89173750D03*
X56951250Y-88673750D03*
X56951250Y-88173750D03*
X56951250Y-87673750D03*
X56951250Y-87173750D03*
X56951250Y-86673750D03*
X56951250Y-86173750D03*
X56951250Y-85673750D03*
X56951250Y-85173750D03*
X56951250Y-84673750D03*
D27*
X55026250Y-82748750D03*
X54526250Y-82748750D03*
X54026250Y-82748750D03*
X53526250Y-82748750D03*
X53026250Y-82748750D03*
X52526250Y-82748750D03*
X52026250Y-82748750D03*
X51526250Y-82748750D03*
X51026250Y-82748750D03*
X50526250Y-82748750D03*
X50026250Y-82748750D03*
X49526250Y-82748750D03*
X49026250Y-82748750D03*
X48526250Y-82748750D03*
X48026250Y-82748750D03*
X47526250Y-82748750D03*
%TD*%
D21*
%TO.C,D87*%
X29845000Y-71500000D03*
X29845000Y-68200000D03*
%TD*%
D19*
%TO.C,C37*%
X283845000Y-92872500D03*
X283845000Y-91912500D03*
%TD*%
D21*
%TO.C,D81*%
X32385000Y-52450000D03*
X32385000Y-49150000D03*
%TD*%
D19*
%TO.C,C87*%
X98107500Y-54772500D03*
X98107500Y-53812500D03*
%TD*%
%TO.C,C68*%
X169545000Y-92872500D03*
X169545000Y-91912500D03*
%TD*%
D24*
%TO.C,C7*%
X36675000Y-89058750D03*
X35715000Y-89058750D03*
%TD*%
D20*
%TO.C,C86*%
X78422500Y-27618750D03*
X78422500Y-28578750D03*
%TD*%
D21*
%TO.C,D59*%
X146685000Y-109600000D03*
X146685000Y-106300000D03*
%TD*%
D20*
%TO.C,C59*%
X207010000Y-113343750D03*
X207010000Y-114303750D03*
%TD*%
D21*
%TO.C,D58*%
X137160000Y-90550000D03*
X137160000Y-87250000D03*
%TD*%
%TO.C,D18*%
X284797500Y-23875000D03*
X284797500Y-20575000D03*
%TD*%
%TO.C,D10*%
X308610000Y-90550000D03*
X308610000Y-87250000D03*
%TD*%
D19*
%TO.C,C102*%
X26670000Y-54296250D03*
X26670000Y-53336250D03*
%TD*%
D20*
%TO.C,C64*%
X187483750Y-113343750D03*
X187483750Y-114303750D03*
%TD*%
%TO.C,C73*%
X145097500Y-75243750D03*
X145097500Y-76203750D03*
%TD*%
D28*
%TO.C,U6*%
X15237500Y-115861250D03*
X14287500Y-115861250D03*
X13337500Y-115861250D03*
X13337500Y-118136250D03*
X14287500Y-118136250D03*
X15237500Y-118136250D03*
%TD*%
D20*
%TO.C,C39*%
X268763750Y-27618750D03*
X268763750Y-28578750D03*
%TD*%
D21*
%TO.C,D72*%
X80803750Y-71500000D03*
X80803750Y-68200000D03*
%TD*%
D24*
%TO.C,C9*%
X43342500Y-83820000D03*
X42382500Y-83820000D03*
%TD*%
%TO.C,C10*%
X45088750Y-81597500D03*
X44128750Y-81597500D03*
%TD*%
D20*
%TO.C,C15*%
X32385000Y-78418750D03*
X32385000Y-79378750D03*
%TD*%
D19*
%TO.C,C91*%
X90963750Y-130972500D03*
X90963750Y-130012500D03*
%TD*%
D21*
%TO.C,D69*%
X103822500Y-71500000D03*
X103822500Y-68200000D03*
%TD*%
%TO.C,D64*%
X118110000Y-90550000D03*
X118110000Y-87250000D03*
%TD*%
%TO.C,D74*%
X83661250Y-109600000D03*
X83661250Y-106300000D03*
%TD*%
%TO.C,D83*%
X48418750Y-109600000D03*
X48418750Y-106300000D03*
%TD*%
D20*
%TO.C,C83*%
X97472500Y-27618750D03*
X97472500Y-28578750D03*
%TD*%
D21*
%TO.C,D7*%
X339566250Y-128650000D03*
X339566250Y-125350000D03*
%TD*%
D19*
%TO.C,C95*%
X64770000Y-130972500D03*
X64770000Y-130012500D03*
%TD*%
D20*
%TO.C,C90*%
X95091250Y-113343750D03*
X95091250Y-114303750D03*
%TD*%
D21*
%TO.C,D13*%
X303847500Y-52450000D03*
X303847500Y-49150000D03*
%TD*%
%TO.C,D66*%
X101441250Y-128650000D03*
X101441250Y-125350000D03*
%TD*%
D20*
%TO.C,C60*%
X183197500Y-27618750D03*
X183197500Y-28578750D03*
%TD*%
%TO.C,C92*%
X54610000Y-27618750D03*
X54610000Y-28578750D03*
%TD*%
D21*
%TO.C,D38*%
X222885000Y-109600000D03*
X222885000Y-106300000D03*
%TD*%
%TO.C,D77*%
X51435000Y-52450000D03*
X51435000Y-49150000D03*
%TD*%
%TO.C,D62*%
X132397500Y-52450000D03*
X132397500Y-49150000D03*
%TD*%
D20*
%TO.C,C69*%
X168910000Y-113343750D03*
X168910000Y-114303750D03*
%TD*%
D21*
%TO.C,D45*%
X189547500Y-52450000D03*
X189547500Y-49150000D03*
%TD*%
D29*
%TO.C,D1*%
X142551250Y-35877500D03*
X140976250Y-35877500D03*
%TD*%
D20*
%TO.C,C67*%
X164147500Y-75243750D03*
X164147500Y-76203750D03*
%TD*%
D19*
%TO.C,C72*%
X164782500Y-54772500D03*
X164782500Y-53812500D03*
%TD*%
D21*
%TO.C,D65*%
X127635000Y-109600000D03*
X127635000Y-106300000D03*
%TD*%
D20*
%TO.C,C99*%
X35560000Y-113343750D03*
X35560000Y-114303750D03*
%TD*%
%TO.C,C43*%
X264160000Y-113343750D03*
X264160000Y-114303750D03*
%TD*%
D22*
%TO.C,C105*%
X54915000Y-97190000D03*
X56465000Y-97190000D03*
%TD*%
D19*
%TO.C,C66*%
X183832500Y-54772500D03*
X183832500Y-53812500D03*
%TD*%
D21*
%TO.C,D41*%
X199072500Y-71500000D03*
X199072500Y-68200000D03*
%TD*%
D19*
%TO.C,C27*%
X329247500Y-130972500D03*
X329247500Y-130012500D03*
%TD*%
D21*
%TO.C,D36*%
X218122500Y-71500000D03*
X218122500Y-68200000D03*
%TD*%
D19*
%TO.C,C33*%
X305276250Y-130972500D03*
X305276250Y-130012500D03*
%TD*%
D20*
%TO.C,C50*%
X221297500Y-27618750D03*
X221297500Y-28578750D03*
%TD*%
D19*
%TO.C,C53*%
X226695000Y-92872500D03*
X226695000Y-91912500D03*
%TD*%
D21*
%TO.C,D52*%
X156210000Y-90550000D03*
X156210000Y-87250000D03*
%TD*%
D20*
%TO.C,C88*%
X83185000Y-75243750D03*
X83185000Y-76203750D03*
%TD*%
D19*
%TO.C,C49*%
X233838750Y-130972500D03*
X233838750Y-130012500D03*
%TD*%
D21*
%TO.C,D79*%
X51435000Y-128650000D03*
X51435000Y-125350000D03*
%TD*%
%TO.C,D2*%
X341947500Y-23875000D03*
X341947500Y-20575000D03*
%TD*%
D20*
%TO.C,C36*%
X278447500Y-75243750D03*
X278447500Y-76203750D03*
%TD*%
D21*
%TO.C,D32*%
X241935000Y-109600000D03*
X241935000Y-106300000D03*
%TD*%
D20*
%TO.C,C77*%
X116363750Y-27618750D03*
X116363750Y-28578750D03*
%TD*%
%TO.C,C55*%
X202247500Y-27618750D03*
X202247500Y-28578750D03*
%TD*%
D21*
%TO.C,D24*%
X265747500Y-52450000D03*
X265747500Y-49150000D03*
%TD*%
%TO.C,D63*%
X122872500Y-71500000D03*
X122872500Y-68200000D03*
%TD*%
%TO.C,D17*%
X308451250Y-128650000D03*
X308451250Y-125350000D03*
%TD*%
D20*
%TO.C,C75*%
X149860000Y-113343750D03*
X149860000Y-114303750D03*
%TD*%
%TO.C,C41*%
X259397500Y-75243750D03*
X259397500Y-76203750D03*
%TD*%
D21*
%TO.C,D47*%
X175260000Y-90550000D03*
X175260000Y-87250000D03*
%TD*%
D23*
%TO.C,FB2*%
X41592500Y-93351250D03*
X41592500Y-94926250D03*
%TD*%
D19*
%TO.C,C26*%
X322262500Y-92872500D03*
X322262500Y-91912500D03*
%TD*%
D30*
%TO.C,R4*%
X37113750Y-79851250D03*
X38133750Y-79851250D03*
%TD*%
D20*
%TO.C,C65*%
X163988750Y-27618750D03*
X163988750Y-28578750D03*
%TD*%
D21*
%TO.C,D76*%
X51435000Y-23875000D03*
X51435000Y-20575000D03*
%TD*%
%TO.C,D30*%
X237172500Y-71500000D03*
X237172500Y-68200000D03*
%TD*%
D31*
%TO.C,U1*%
X138286250Y-31752500D03*
X138286250Y-33652500D03*
X140161250Y-32702500D03*
%TD*%
D32*
%TO.C,R8*%
X47023750Y-78422500D03*
X46003750Y-78422500D03*
%TD*%
D20*
%TO.C,C46*%
X240347500Y-75243750D03*
X240347500Y-76203750D03*
%TD*%
%TO.C,C30*%
X297338750Y-75243750D03*
X297338750Y-76203750D03*
%TD*%
D21*
%TO.C,D57*%
X141922500Y-71500000D03*
X141922500Y-68200000D03*
%TD*%
D30*
%TO.C,R3*%
X143952500Y-35877500D03*
X144972500Y-35877500D03*
%TD*%
D21*
%TO.C,D42*%
X194310000Y-90550000D03*
X194310000Y-87250000D03*
%TD*%
D19*
%TO.C,C21*%
X348297500Y-92396250D03*
X348297500Y-91436250D03*
%TD*%
D21*
%TO.C,D51*%
X160972500Y-71500000D03*
X160972500Y-68200000D03*
%TD*%
%TO.C,D44*%
X180022500Y-23875000D03*
X180022500Y-20575000D03*
%TD*%
D19*
%TO.C,C93*%
X64770000Y-54296250D03*
X64770000Y-53336250D03*
%TD*%
D21*
%TO.C,D43*%
X203835000Y-109600000D03*
X203835000Y-106300000D03*
%TD*%
D33*
%TO.C,C8*%
X59210000Y-83502500D03*
X60170000Y-83502500D03*
%TD*%
D19*
%TO.C,C23*%
X353060000Y-130337500D03*
X353060000Y-129377500D03*
%TD*%
D21*
%TO.C,D67*%
X94297500Y-23875000D03*
X94297500Y-20575000D03*
%TD*%
D24*
%TO.C,C14*%
X40326250Y-94932500D03*
X39366250Y-94932500D03*
%TD*%
D20*
%TO.C,C103*%
X16510000Y-75243750D03*
X16510000Y-76203750D03*
%TD*%
D21*
%TO.C,D39*%
X215582500Y-23875000D03*
X215582500Y-20575000D03*
%TD*%
%TO.C,D84*%
X32385000Y-128650000D03*
X32385000Y-125350000D03*
%TD*%
%TO.C,D35*%
X227647500Y-52450000D03*
X227647500Y-49150000D03*
%TD*%
D20*
%TO.C,C57*%
X202247500Y-75243750D03*
X202247500Y-76203750D03*
%TD*%
D19*
%TO.C,C104*%
X26670000Y-130972500D03*
X26670000Y-130012500D03*
%TD*%
%TO.C,C51*%
X240982500Y-54772500D03*
X240982500Y-53812500D03*
%TD*%
D20*
%TO.C,C96*%
X35560000Y-27618750D03*
X35560000Y-28578750D03*
%TD*%
D19*
%TO.C,C2*%
X37610000Y-85728750D03*
X37610000Y-84768750D03*
%TD*%
D20*
%TO.C,C85*%
X106997500Y-75243750D03*
X106997500Y-76203750D03*
%TD*%
%TO.C,C81*%
X130810000Y-113343750D03*
X130810000Y-114303750D03*
%TD*%
D21*
%TO.C,D23*%
X265747500Y-23875000D03*
X265747500Y-20575000D03*
%TD*%
%TO.C,D25*%
X256222500Y-71500000D03*
X256222500Y-68200000D03*
%TD*%
%TO.C,D26*%
X251460000Y-90550000D03*
X251460000Y-87250000D03*
%TD*%
D20*
%TO.C,C71*%
X135413750Y-27618750D03*
X135413750Y-28578750D03*
%TD*%
%TO.C,C18*%
X344963750Y-27618750D03*
X344963750Y-28578750D03*
%TD*%
D19*
%TO.C,C42*%
X264795000Y-92872500D03*
X264795000Y-91912500D03*
%TD*%
D21*
%TO.C,D28*%
X246697500Y-23875000D03*
X246697500Y-20575000D03*
%TD*%
D19*
%TO.C,C78*%
X145732500Y-54772500D03*
X145732500Y-53812500D03*
%TD*%
D20*
%TO.C,C34*%
X287655000Y-27618750D03*
X287655000Y-28578750D03*
%TD*%
D34*
%TO.C,C5*%
X62071250Y-81753750D03*
X62071250Y-79853750D03*
%TD*%
D21*
%TO.C,D6*%
X321786250Y-109600000D03*
X321786250Y-106300000D03*
%TD*%
D19*
%TO.C,C100*%
X45720000Y-130972500D03*
X45720000Y-130012500D03*
%TD*%
D21*
%TO.C,D21*%
X270510000Y-90550000D03*
X270510000Y-87250000D03*
%TD*%
%TO.C,D20*%
X275272500Y-71500000D03*
X275272500Y-68200000D03*
%TD*%
%TO.C,D15*%
X289560000Y-90550000D03*
X289560000Y-87250000D03*
%TD*%
%TO.C,D68*%
X113347500Y-52450000D03*
X113347500Y-49150000D03*
%TD*%
D19*
%TO.C,C89*%
X100488750Y-92872500D03*
X100488750Y-91912500D03*
%TD*%
D20*
%TO.C,C44*%
X249872500Y-27618750D03*
X249872500Y-28578750D03*
%TD*%
D21*
%TO.C,D31*%
X248920000Y-90550000D03*
X248920000Y-87250000D03*
%TD*%
%TO.C,D27*%
X260985000Y-109600000D03*
X260985000Y-106300000D03*
%TD*%
D19*
%TO.C,C76*%
X138588750Y-130972500D03*
X138588750Y-130012500D03*
%TD*%
D20*
%TO.C,C20*%
X340042500Y-75402500D03*
X340042500Y-76362500D03*
%TD*%
D21*
%TO.C,D78*%
X51435000Y-71500000D03*
X51435000Y-68200000D03*
%TD*%
D19*
%TO.C,C29*%
X317182500Y-54772500D03*
X317182500Y-53812500D03*
%TD*%
D21*
%TO.C,D75*%
X77628750Y-128650000D03*
X77628750Y-125350000D03*
%TD*%
D33*
%TO.C,C17*%
X15236250Y-120015000D03*
X16196250Y-120015000D03*
%TD*%
D30*
%TO.C,R7*%
X42828750Y-78422500D03*
X43848750Y-78422500D03*
%TD*%
D19*
%TO.C,C45*%
X260032500Y-54772500D03*
X260032500Y-53812500D03*
%TD*%
D21*
%TO.C,D14*%
X294322500Y-71500000D03*
X294322500Y-68200000D03*
%TD*%
D19*
%TO.C,C31*%
X302895000Y-92872500D03*
X302895000Y-91912500D03*
%TD*%
D21*
%TO.C,D53*%
X165735000Y-109600000D03*
X165735000Y-106300000D03*
%TD*%
D19*
%TO.C,C82*%
X114776250Y-130972500D03*
X114776250Y-130012500D03*
%TD*%
D20*
%TO.C,C98*%
X35560000Y-75243750D03*
X35560000Y-76203750D03*
%TD*%
D21*
%TO.C,D46*%
X180022500Y-71500000D03*
X180022500Y-68200000D03*
%TD*%
%TO.C,D19*%
X284797500Y-52450000D03*
X284797500Y-49150000D03*
%TD*%
D20*
%TO.C,C62*%
X183197500Y-75243750D03*
X183197500Y-76203750D03*
%TD*%
D21*
%TO.C,D61*%
X113347500Y-23875000D03*
X113347500Y-20575000D03*
%TD*%
D19*
%TO.C,C16*%
X17780000Y-116843750D03*
X17780000Y-115883750D03*
%TD*%
D20*
%TO.C,C32*%
X302260000Y-113343750D03*
X302260000Y-114303750D03*
%TD*%
D19*
%TO.C,C58*%
X207645000Y-92872500D03*
X207645000Y-91912500D03*
%TD*%
D20*
%TO.C,C38*%
X283210000Y-113343750D03*
X283210000Y-114303750D03*
%TD*%
D19*
%TO.C,C24*%
X336391250Y-54772500D03*
X336391250Y-53812500D03*
%TD*%
D20*
%TO.C,C52*%
X221297500Y-75243750D03*
X221297500Y-76203750D03*
%TD*%
D21*
%TO.C,D48*%
X184785000Y-109600000D03*
X184785000Y-106300000D03*
%TD*%
D19*
%TO.C,C74*%
X150495000Y-92872500D03*
X150495000Y-91912500D03*
%TD*%
D20*
%TO.C,C6*%
X58578750Y-95246250D03*
X58578750Y-96206250D03*
%TD*%
D19*
%TO.C,C80*%
X131445000Y-92872500D03*
X131445000Y-91912500D03*
%TD*%
D20*
%TO.C,C22*%
X332898750Y-113502500D03*
X332898750Y-114462500D03*
%TD*%
D19*
%TO.C,C70*%
X162401250Y-130972500D03*
X162401250Y-130012500D03*
%TD*%
D21*
%TO.C,D80*%
X32385000Y-23875000D03*
X32385000Y-20575000D03*
%TD*%
D20*
%TO.C,C4*%
X37623750Y-86820000D03*
X37623750Y-87780000D03*
%TD*%
D35*
%TO.C,R6*%
X52580000Y-106300000D03*
X52580000Y-105280000D03*
%TD*%
D21*
%TO.C,D82*%
X32385000Y-71500000D03*
X32385000Y-68200000D03*
%TD*%
D19*
%TO.C,C63*%
X188595000Y-92872500D03*
X188595000Y-91912500D03*
%TD*%
D21*
%TO.C,D85*%
X29845000Y-23875000D03*
X29845000Y-20575000D03*
%TD*%
D36*
%TO.C,C3*%
X134778750Y-33636250D03*
X134778750Y-32086250D03*
%TD*%
D19*
%TO.C,C56*%
X221932500Y-54772500D03*
X221932500Y-53812500D03*
%TD*%
D21*
%TO.C,D49*%
X177482500Y-23875000D03*
X177482500Y-20575000D03*
%TD*%
%TO.C,D54*%
X149066250Y-128650000D03*
X149066250Y-125350000D03*
%TD*%
%TO.C,D50*%
X170497500Y-52450000D03*
X170497500Y-49150000D03*
%TD*%
%TO.C,D60*%
X125253750Y-128650000D03*
X125253750Y-125350000D03*
%TD*%
D20*
%TO.C,C25*%
X316388750Y-75243750D03*
X316388750Y-76203750D03*
%TD*%
D21*
%TO.C,D22*%
X280035000Y-109600000D03*
X280035000Y-106300000D03*
%TD*%
D29*
%TO.C,FB3*%
X145250000Y-31115000D03*
X143675000Y-31115000D03*
%TD*%
D21*
%TO.C,D4*%
X329882500Y-67531250D03*
X329882500Y-64231250D03*
%TD*%
D20*
%TO.C,C79*%
X126047500Y-75243750D03*
X126047500Y-76203750D03*
%TD*%
D24*
%TO.C,C13*%
X40326250Y-93345000D03*
X39366250Y-93345000D03*
%TD*%
D21*
%TO.C,D11*%
X315753750Y-128650000D03*
X315753750Y-125350000D03*
%TD*%
%TO.C,D56*%
X151447500Y-52450000D03*
X151447500Y-49150000D03*
%TD*%
D20*
%TO.C,C54*%
X226060000Y-113343750D03*
X226060000Y-114303750D03*
%TD*%
D21*
%TO.C,D70*%
X91757500Y-23875000D03*
X91757500Y-20575000D03*
%TD*%
D19*
%TO.C,C35*%
X298132500Y-54772500D03*
X298132500Y-53812500D03*
%TD*%
D21*
%TO.C,D12*%
X303847500Y-23875000D03*
X303847500Y-20575000D03*
%TD*%
%TO.C,D88*%
X29845000Y-128650000D03*
X29845000Y-125350000D03*
%TD*%
%TO.C,D37*%
X213360000Y-90550000D03*
X213360000Y-87250000D03*
%TD*%
D20*
%TO.C,C28*%
X306863750Y-27618750D03*
X306863750Y-28578750D03*
%TD*%
D37*
%TO.C,Y1*%
X34383749Y-85484999D03*
X34383749Y-87234999D03*
X35783749Y-87234999D03*
X35783749Y-85484999D03*
%TD*%
D19*
%TO.C,C61*%
X202882500Y-54772500D03*
X202882500Y-53812500D03*
%TD*%
M02*
