M48
; DRILL file {KiCad (7.0.0)} date Mon Jun 19 20:50:26 2023
; FORMAT={-:-/ absolute / inch / decimal}
; #@! TF.CreationDate,2023-06-19T20:50:26+08:00
; #@! TF.GenerationSoftware,Kicad,Pcbnew,(7.0.0)
; #@! TF.FileFunction,NonPlated,1,2,NPTH
FMAT,2
INCH
; #@! TA.AperFunction,NonPlated,NPTH,ComponentDrill
T1C0.0256
; #@! TA.AperFunction,NonPlated,NPTH,ComponentDrill
T2C0.0689
; #@! TA.AperFunction,NonPlated,NPTH,ComponentDrill
T3C0.1200
; #@! TA.AperFunction,NonPlated,NPTH,ComponentDrill
T4C0.1570
; #@! TA.AperFunction,NonPlated,NPTH,ComponentDrill
T5C0.1673
%
G90
G05
T1
X5.9862Y-0.7213
X6.2138Y-0.7213
T2
X0.65Y-0.85
X0.65Y-1.975
X0.65Y-2.725
X0.65Y-4.975
X1.05Y-0.85
X1.05Y-1.975
X1.05Y-2.725
X1.05Y-4.975
X1.4Y-0.85
X1.4Y-1.975
X1.4Y-2.725
X1.4Y-4.225
X1.4Y-4.975
X1.8Y-0.85
X1.8Y-1.975
X1.8Y-2.725
X1.8Y-4.225
X1.8Y-4.975
X2.15Y-0.85
X2.15Y-1.975
X2.15Y-2.725
X2.15Y-4.975
X2.55Y-0.85
X2.55Y-1.975
X2.55Y-2.725
X2.55Y-4.975
X3.0875Y-0.85
X3.1812Y-4.975
X3.275Y-2.725
X3.4625Y-1.975
X3.4875Y-0.85
X3.5562Y-3.4747
X3.5812Y-4.975
X3.675Y-2.725
X3.7437Y-4.225
X3.8375Y-0.85
X3.8625Y-1.975
X3.9562Y-3.4747
X4.1187Y-4.975
X4.1437Y-4.225
X4.2125Y-2.725
X4.2375Y-0.85
X4.5187Y-4.975
X4.5875Y-0.85
X4.5875Y-1.975
X4.6125Y-2.725
X4.775Y-3.475
X4.9625Y-2.725
X4.9875Y-0.85
X4.9875Y-1.975
X5.0562Y-4.975
X5.15Y-4.225
X5.175Y-3.475
X5.3375Y-0.85
X5.3375Y-1.975
X5.3625Y-2.725
X5.4562Y-4.975
X5.525Y-3.475
X5.55Y-4.225
X5.7125Y-2.725
X5.7375Y-0.85
X5.7375Y-1.975
X5.9Y-4.225
X5.925Y-3.475
X5.9937Y-4.975
X6.0875Y-1.975
X6.1125Y-2.725
X6.275Y-3.475
X6.3Y-4.225
X6.3937Y-4.975
X6.4625Y-0.85
X6.4625Y-2.725
X6.4875Y-1.975
X6.65Y-4.225
X6.675Y-3.475
X6.8375Y-1.975
X6.8625Y-0.85
X6.8625Y-2.725
X7.025Y-3.475
X7.05Y-4.225
X7.2125Y-0.85
X7.2125Y-2.725
X7.2375Y-1.975
X7.4Y-4.225
X7.425Y-3.475
X7.5875Y-1.975
X7.6125Y-0.85
X7.6125Y-2.725
X7.775Y-3.475
X7.8Y-4.225
X7.9625Y-0.85
X7.9625Y-2.725
X7.9875Y-1.975
X8.15Y-4.225
X8.175Y-3.475
X8.3375Y-1.975
X8.3625Y-0.85
X8.3625Y-2.725
X8.525Y-3.475
X8.55Y-4.225
X8.7125Y-0.85
X8.7125Y-2.725
X8.7375Y-1.975
X8.8063Y-4.9747
X8.9Y-4.225
X8.925Y-3.475
X9.0875Y-1.975
X9.1125Y-0.85
X9.1125Y-2.725
X9.2062Y-4.9747
X9.275Y-3.475
X9.3Y-4.225
X9.4625Y-2.725
X9.4875Y-1.975
X9.65Y-4.225
X9.675Y-3.475
X9.8375Y-0.85
X9.8375Y-1.975
X9.8625Y-2.725
X10.025Y-3.475
X10.05Y-4.225
X10.2125Y-2.725
X10.2375Y-0.85
X10.2375Y-1.975
X10.4Y-4.225
X10.425Y-3.475
X10.5875Y-0.85
X10.5875Y-1.975
X10.6125Y-2.725
X10.775Y-3.475
X10.8Y-4.225
X10.9625Y-2.725
X10.9875Y-0.85
X10.9875Y-1.975
X11.15Y-4.225
X11.175Y-3.475
X11.3375Y-0.85
X11.3375Y-1.975
X11.3625Y-2.725
X11.525Y-3.475
X11.55Y-4.225
X11.6188Y-4.975
X11.7125Y-2.725
X11.7375Y-0.85
X11.7375Y-1.975
X11.9Y-4.225
X11.925Y-3.475
X12.0187Y-4.975
X12.0875Y-0.85
X12.0875Y-1.975
X12.1125Y-2.725
X12.275Y-3.475
X12.3Y-4.225
X12.4625Y-2.725
X12.4875Y-0.85
X12.4875Y-1.975
X12.5563Y-4.975
X12.675Y-3.475
X12.8375Y-1.975
X12.8625Y-2.725
X12.9562Y-4.975
X13.1188Y-4.225
X13.2375Y-1.975
X13.3063Y-3.475
X13.4Y-2.725
X13.4938Y-4.975
X13.5187Y-4.225
X13.5875Y-0.85
X13.5875Y-1.975
X13.7062Y-3.475
X13.8Y-2.725
X13.8937Y-4.975
X13.9875Y-0.85
X13.9875Y-1.975
T3
X3.1925Y-1.7
X3.2862Y-3.1997
X3.4737Y-3.95
X4.1325Y-1.7
X4.2263Y-3.1997
X4.4138Y-3.95
X7.0377Y-4.6997
X10.9748Y-4.6997
X12.8487Y-3.95
X13.7888Y-3.95
T4
X0.85Y-0.85
X0.85Y-1.975
X0.85Y-2.725
X0.85Y-4.975
X1.6Y-0.85
X1.6Y-1.975
X1.6Y-2.725
X1.6Y-4.225
X1.6Y-4.975
X2.35Y-0.85
X2.35Y-1.975
X2.35Y-2.725
X2.35Y-4.975
X3.1925Y-2.3
X3.2862Y-3.7997
X3.2875Y-0.85
X3.3813Y-4.975
X3.4737Y-4.55
X3.475Y-2.725
X3.6625Y-1.975
X3.7563Y-3.4747
X3.9438Y-4.225
X4.0375Y-0.85
X4.1325Y-2.3
X4.2263Y-3.7997
X4.3187Y-4.975
X4.4125Y-2.725
X4.4138Y-4.55
X4.7875Y-0.85
X4.7875Y-1.975
X4.975Y-3.475
X5.1625Y-2.725
X5.2562Y-4.975
X5.35Y-4.225
X5.5375Y-0.85
X5.5375Y-1.975
X5.725Y-3.475
X5.9125Y-2.725
X6.1Y-4.225
X6.1937Y-4.975
X6.2875Y-1.975
X6.475Y-3.475
X6.6625Y-0.85
X6.6625Y-2.725
X6.85Y-4.225
X7.0375Y-1.975
X7.0377Y-5.2997
X7.225Y-3.475
X7.4125Y-0.85
X7.4125Y-2.725
X7.6Y-4.225
X7.7875Y-1.975
X7.975Y-3.475
X8.1625Y-0.85
X8.1625Y-2.725
X8.35Y-4.225
X8.5375Y-1.975
X8.725Y-3.475
X8.9125Y-0.85
X8.9125Y-2.725
X9.0062Y-4.9747
X9.1Y-4.225
X9.2875Y-1.975
X9.475Y-3.475
X9.6625Y-2.725
X9.85Y-4.225
X10.0375Y-0.85
X10.0375Y-1.975
X10.225Y-3.475
X10.4125Y-2.725
X10.6Y-4.225
X10.7875Y-0.85
X10.7875Y-1.975
X10.9748Y-5.2997
X10.975Y-3.475
X11.1625Y-2.725
X11.35Y-4.225
X11.5375Y-0.85
X11.5375Y-1.975
X11.725Y-3.475
X11.8187Y-4.975
X11.9125Y-2.725
X12.1Y-4.225
X12.2875Y-0.85
X12.2875Y-1.975
X12.475Y-3.475
X12.6625Y-2.725
X12.7562Y-4.975
X12.8487Y-4.55
X13.0375Y-1.975
X13.3187Y-4.225
X13.5062Y-3.475
X13.6Y-2.725
X13.6937Y-4.975
X13.7875Y-0.85
X13.7875Y-1.975
X13.7888Y-4.55
T5
X0.85Y-1.05
X0.85Y-2.175
X0.85Y-2.925
X0.85Y-5.175
X1.6Y-1.05
X1.6Y-2.175
X1.6Y-2.925
X1.6Y-4.425
X1.6Y-5.175
X2.35Y-1.05
X2.35Y-2.175
X2.35Y-2.925
X2.35Y-5.175
X3.2875Y-1.05
X3.3813Y-5.175
X3.475Y-2.925
X3.6625Y-2.175
X3.7563Y-3.6747
X3.9438Y-4.425
X4.0375Y-1.05
X4.3187Y-5.175
X4.4125Y-2.925
X4.7875Y-1.05
X4.7875Y-2.175
X4.975Y-3.675
X5.1625Y-2.925
X5.2562Y-5.175
X5.35Y-4.425
X5.5375Y-1.05
X5.5375Y-2.175
X5.725Y-3.675
X5.9125Y-2.925
X6.1Y-4.425
X6.1937Y-5.175
X6.2875Y-2.175
X6.475Y-3.675
X6.6625Y-1.05
X6.6625Y-2.925
X6.85Y-4.425
X7.0375Y-2.175
X7.225Y-3.675
X7.4125Y-1.05
X7.4125Y-2.925
X7.6Y-4.425
X7.7875Y-2.175
X7.975Y-3.675
X8.1625Y-1.05
X8.1625Y-2.925
X8.35Y-4.425
X8.5375Y-2.175
X8.725Y-3.675
X8.9125Y-1.05
X8.9125Y-2.925
X9.0062Y-5.1747
X9.1Y-4.425
X9.2875Y-2.175
X9.475Y-3.675
X9.6625Y-2.925
X9.85Y-4.425
X10.0375Y-1.05
X10.0375Y-2.175
X10.225Y-3.675
X10.4125Y-2.925
X10.6Y-4.425
X10.7875Y-1.05
X10.7875Y-2.175
X10.975Y-3.675
X11.1625Y-2.925
X11.35Y-4.425
X11.5375Y-1.05
X11.5375Y-2.175
X11.725Y-3.675
X11.8187Y-5.175
X11.9125Y-2.925
X12.1Y-4.425
X12.2875Y-1.05
X12.2875Y-2.175
X12.475Y-3.675
X12.6625Y-2.925
X12.7562Y-5.175
X13.0375Y-2.175
X13.3187Y-4.425
X13.5062Y-3.675
X13.6Y-2.925
X13.6937Y-5.175
X13.7875Y-1.05
X13.7875Y-2.175
T0
M30
